<?xml version="1.0" encoding="utf-8" standalone="no"?>
<!DOCTYPE svg PUBLIC "-//W3C//DTD SVG 1.1//EN"
  "http://www.w3.org/Graphics/SVG/1.1/DTD/svg11.dtd">
<svg xmlns:xlink="http://www.w3.org/1999/xlink" width="557.712pt" height="313.776pt" viewBox="0 0 557.712 313.776" xmlns="http://www.w3.org/2000/svg" version="1.1">
 <metadata>
  <rdf:RDF xmlns:dc="http://purl.org/dc/elements/1.1/" xmlns:cc="http://creativecommons.org/ns#" xmlns:rdf="http://www.w3.org/1999/02/22-rdf-syntax-ns#">
   <cc:Work>
    <dc:type rdf:resource="http://purl.org/dc/dcmitype/StillImage"/>
    <dc:date>2026-09-01T07:08:52.221507</dc:date>
    <dc:format>image/svg+xml</dc:format>
    <dc:creator>
     <cc:Agent>
      <dc:title>Matplotlib v3.11.1, https://matplotlib.org/</dc:title>
     </cc:Agent>
    </dc:creator>
   </cc:Work>
  </rdf:RDF>
 </metadata>
 <defs>
  <style type="text/css">*{stroke-linejoin: round; stroke-linecap: butt}</style>
 </defs>
 <g id="figure_1">
  <g id="patch_1">
   <path d="M 0 313.776 
L 557.712 313.776 
L 557.712 0 
L 0 0 
z
" style="fill: #ffffff"/>
  </g>
  <g id="axes_1">
   <g id="patch_2">
    <path d="M 21.06 73.728 
L 101.448 73.728 
L 101.448 34.92 
L 21.06 34.92 
L 21.06 73.728 
z
" clip-path="url(#p86b26488eb)" style="fill: none; stroke: #000000; stroke-width: 1.1; stroke-linejoin: miter"/>
   </g>
   <g id="patch_3">
    <path d="M 129.168 82.044 
L 129.168 26.604 
L 195.696 54.324 
L 129.168 82.044 
z
" clip-path="url(#p86b26488eb)" style="fill: none; stroke: #000000; stroke-width: 1.1; stroke-linejoin: miter"/>
   </g>
   <g id="patch_4">
    <path d="M 101.448 54.324 
Q 115.308 54.324 127.938163 54.324 
" clip-path="url(#p86b26488eb)" style="fill: none; stroke: #000000; stroke-width: 1.1; stroke-linecap: round"/>
    <path d="M 124.738163 52.724 
L 127.938163 54.324 
L 124.738163 55.924 
z
" clip-path="url(#p86b26488eb)" style="stroke: #000000; stroke-width: 1.1; stroke-linecap: round"/>
   </g>
   <g id="patch_5">
    <path d="M 240.048 65.412 
C 242.988572 65.412 245.809102 64.243698 247.8884 62.1644 
C 249.967698 60.085102 251.136 57.264572 251.136 54.324 
C 251.136 51.383428 249.967698 48.562898 247.8884 46.4836 
C 245.809102 44.404302 242.988572 43.236 240.048 43.236 
C 237.107428 43.236 234.286898 44.404302 232.2076 46.4836 
C 230.128302 48.562898 228.96 51.383428 228.96 54.324 
C 228.96 57.264572 230.128302 60.085102 232.2076 62.1644 
C 234.286898 64.243698 237.107428 65.412 240.048 65.412 
L 240.048 65.412 
z
" clip-path="url(#p86b26488eb)" style="fill: none; stroke: #000000; stroke-width: 1.1; stroke-linejoin: miter"/>
   </g>
   <g id="patch_6">
    <path d="M 240.048 65.412 
C 240.048 65.412 240.048 65.412 240.048 65.412 
C 240.048 65.412 240.048 65.412 240.048 65.412 
C 240.048 65.412 240.048 65.412 240.048 65.412 
C 240.048 65.412 240.048 65.412 240.048 65.412 
C 240.048 65.412 240.048 65.412 240.048 65.412 
C 240.048 65.412 240.048 65.412 240.048 65.412 
C 240.048 65.412 240.048 65.412 240.048 65.412 
C 240.048 65.412 240.048 65.412 240.048 65.412 
z
" clip-path="url(#p86b26488eb)" style="stroke: #000000; stroke-linejoin: miter"/>
   </g>
   <g id="patch_7">
    <path d="M 273.312 217.872 
L 411.912 217.872 
L 411.912 34.92 
L 273.312 34.92 
L 273.312 217.872 
z
" clip-path="url(#p86b26488eb)" style="fill: none; stroke-dasharray: 2.22,0.96; stroke-dashoffset: 0; stroke: #000000; stroke-width: 0.6; stroke-linejoin: miter"/>
   </g>
   <g id="patch_8">
    <path d="M 309.348 81.7668 
C 310.009629 81.7668 310.644248 81.503932 311.11209 81.03609 
C 311.579932 80.568248 311.8428 79.933629 311.8428 79.272 
C 311.8428 78.610371 311.579932 77.975752 311.11209 77.50791 
C 310.644248 77.040068 310.009629 76.7772 309.348 76.7772 
C 308.686371 76.7772 308.051752 77.040068 307.58391 77.50791 
C 307.116068 77.975752 306.8532 78.610371 306.8532 79.272 
C 306.8532 79.933629 307.116068 80.568248 307.58391 81.03609 
C 308.051752 81.503932 308.686371 81.7668 309.348 81.7668 
L 309.348 81.7668 
z
" clip-path="url(#p86b26488eb)" style="fill: none; stroke: #000000; stroke-width: 0.6; stroke-linejoin: miter"/>
   </g>
   <g id="patch_9">
    <path d="M 330.138 81.7668 
C 330.799629 81.7668 331.434248 81.503932 331.90209 81.03609 
C 332.369932 80.568248 332.6328 79.933629 332.6328 79.272 
C 332.6328 78.610371 332.369932 77.975752 331.90209 77.50791 
C 331.434248 77.040068 330.799629 76.7772 330.138 76.7772 
C 329.476371 76.7772 328.841752 77.040068 328.37391 77.50791 
C 327.906068 77.975752 327.6432 78.610371 327.6432 79.272 
C 327.6432 79.933629 327.906068 80.568248 328.37391 81.03609 
C 328.841752 81.503932 329.476371 81.7668 330.138 81.7668 
L 330.138 81.7668 
z
" clip-path="url(#p86b26488eb)" style="fill: none; stroke: #000000; stroke-width: 0.6; stroke-linejoin: miter"/>
   </g>
   <g id="patch_10">
    <path d="M 309.348 120.5748 
C 310.009629 120.5748 310.644248 120.311932 311.11209 119.84409 
C 311.579932 119.376248 311.8428 118.741629 311.8428 118.08 
C 311.8428 117.418371 311.579932 116.783752 311.11209 116.31591 
C 310.644248 115.848068 310.009629 115.5852 309.348 115.5852 
C 308.686371 115.5852 308.051752 115.848068 307.58391 116.31591 
C 307.116068 116.783752 306.8532 117.418371 306.8532 118.08 
C 306.8532 118.741629 307.116068 119.376248 307.58391 119.84409 
C 308.051752 120.311932 308.686371 120.5748 309.348 120.5748 
L 309.348 120.5748 
z
" clip-path="url(#p86b26488eb)" style="fill: none; stroke: #000000; stroke-width: 0.6; stroke-linejoin: miter"/>
   </g>
   <g id="patch_11">
    <path d="M 330.138 120.5748 
C 330.799629 120.5748 331.434248 120.311932 331.90209 119.84409 
C 332.369932 119.376248 332.6328 118.741629 332.6328 118.08 
C 332.6328 117.418371 332.369932 116.783752 331.90209 116.31591 
C 331.434248 115.848068 330.799629 115.5852 330.138 115.5852 
C 329.476371 115.5852 328.841752 115.848068 328.37391 116.31591 
C 327.906068 116.783752 327.6432 117.418371 327.6432 118.08 
C 327.6432 118.741629 327.906068 119.376248 328.37391 119.84409 
C 328.841752 120.311932 329.476371 120.5748 330.138 120.5748 
L 330.138 120.5748 
z
" clip-path="url(#p86b26488eb)" style="fill: none; stroke: #000000; stroke-width: 0.6; stroke-linejoin: miter"/>
   </g>
   <g id="patch_12">
    <path d="M 309.348 159.3828 
C 310.009629 159.3828 310.644248 159.119932 311.11209 158.65209 
C 311.579932 158.184248 311.8428 157.549629 311.8428 156.888 
C 311.8428 156.226371 311.579932 155.591752 311.11209 155.12391 
C 310.644248 154.656068 310.009629 154.3932 309.348 154.3932 
C 308.686371 154.3932 308.051752 154.656068 307.58391 155.12391 
C 307.116068 155.591752 306.8532 156.226371 306.8532 156.888 
C 306.8532 157.549629 307.116068 158.184248 307.58391 158.65209 
C 308.051752 159.119932 308.686371 159.3828 309.348 159.3828 
L 309.348 159.3828 
z
" clip-path="url(#p86b26488eb)" style="fill: none; stroke: #000000; stroke-width: 0.6; stroke-linejoin: miter"/>
   </g>
   <g id="patch_13">
    <path d="M 330.138 159.3828 
C 330.799629 159.3828 331.434248 159.119932 331.90209 158.65209 
C 332.369932 158.184248 332.6328 157.549629 332.6328 156.888 
C 332.6328 156.226371 332.369932 155.591752 331.90209 155.12391 
C 331.434248 154.656068 330.799629 154.3932 330.138 154.3932 
C 329.476371 154.3932 328.841752 154.656068 328.37391 155.12391 
C 327.906068 155.591752 327.6432 156.226371 327.6432 156.888 
C 327.6432 157.549629 327.906068 158.184248 328.37391 158.65209 
C 328.841752 159.119932 329.476371 159.3828 330.138 159.3828 
L 330.138 159.3828 
z
" clip-path="url(#p86b26488eb)" style="fill: none; stroke: #000000; stroke-width: 0.6; stroke-linejoin: miter"/>
   </g>
   <g id="patch_14">
    <path d="M 309.348 198.1908 
C 310.009629 198.1908 310.644248 197.927932 311.11209 197.46009 
C 311.579932 196.992248 311.8428 196.357629 311.8428 195.696 
C 311.8428 195.034371 311.579932 194.399752 311.11209 193.93191 
C 310.644248 193.464068 310.009629 193.2012 309.348 193.2012 
C 308.686371 193.2012 308.051752 193.464068 307.58391 193.93191 
C 307.116068 194.399752 306.8532 195.034371 306.8532 195.696 
C 306.8532 196.357629 307.116068 196.992248 307.58391 197.46009 
C 308.051752 197.927932 308.686371 198.1908 309.348 198.1908 
L 309.348 198.1908 
z
" clip-path="url(#p86b26488eb)" style="fill: none; stroke: #000000; stroke-width: 0.6; stroke-linejoin: miter"/>
   </g>
   <g id="patch_15">
    <path d="M 330.138 198.1908 
C 330.799629 198.1908 331.434248 197.927932 331.90209 197.46009 
C 332.369932 196.992248 332.6328 196.357629 332.6328 195.696 
C 332.6328 195.034371 332.369932 194.399752 331.90209 193.93191 
C 331.434248 193.464068 330.799629 193.2012 330.138 193.2012 
C 329.476371 193.2012 328.841752 193.464068 328.37391 193.93191 
C 327.906068 194.399752 327.6432 195.034371 327.6432 195.696 
C 327.6432 196.357629 327.906068 196.992248 328.37391 197.46009 
C 328.841752 197.927932 329.476371 198.1908 330.138 198.1908 
L 330.138 198.1908 
z
" clip-path="url(#p86b26488eb)" style="fill: none; stroke: #000000; stroke-width: 0.6; stroke-linejoin: miter"/>
   </g>
   <g id="patch_16">
    <path d="M 319.8816 73.1736 
C 319.8816 73.1736 319.8816 73.1736 319.8816 73.1736 
C 319.8816 73.1736 319.8816 73.1736 319.8816 73.1736 
C 319.8816 73.1736 319.8816 73.1736 319.8816 73.1736 
C 319.8816 73.1736 319.8816 73.1736 319.8816 73.1736 
C 319.8816 73.1736 319.8816 73.1736 319.8816 73.1736 
C 319.8816 73.1736 319.8816 73.1736 319.8816 73.1736 
C 319.8816 73.1736 319.8816 73.1736 319.8816 73.1736 
C 319.8816 73.1736 319.8816 73.1736 319.8816 73.1736 
z
" clip-path="url(#p86b26488eb)" style="stroke: #000000; stroke-linejoin: miter"/>
   </g>
   <g id="patch_17">
    <path d="M 354.5316 75.114 
C 354.5316 75.114 354.5316 75.114 354.5316 75.114 
C 354.5316 75.114 354.5316 75.114 354.5316 75.114 
C 354.5316 75.114 354.5316 75.114 354.5316 75.114 
C 354.5316 75.114 354.5316 75.114 354.5316 75.114 
C 354.5316 75.114 354.5316 75.114 354.5316 75.114 
C 354.5316 75.114 354.5316 75.114 354.5316 75.114 
C 354.5316 75.114 354.5316 75.114 354.5316 75.114 
C 354.5316 75.114 354.5316 75.114 354.5316 75.114 
z
" clip-path="url(#p86b26488eb)" style="stroke: #000000; stroke-linejoin: miter"/>
   </g>
   <g id="patch_18">
    <path d="M 450.72 54.324 
C 450.72 51.751856 449.69713 49.28243 447.87835 47.46365 
C 446.05957 45.64487 443.590144 44.622 441.018 44.622 
C 438.445856 44.622 435.97643 45.64487 434.15765 47.46365 
C 432.33887 49.28243 431.316 51.751856 431.316 54.324 
" clip-path="url(#p86b26488eb)" style="fill: none; stroke: #000000; stroke-width: 1.1; stroke-linejoin: miter"/>
   </g>
   <g id="patch_19">
    <path d="M 470.124 54.324 
C 470.124 51.751856 469.10113 49.28243 467.28235 47.46365 
C 465.46357 45.64487 462.994144 44.622 460.422 44.622 
C 457.849856 44.622 455.38043 45.64487 453.56165 47.46365 
C 451.74287 49.28243 450.72 51.751856 450.72 54.324 
" clip-path="url(#p86b26488eb)" style="fill: none; stroke: #000000; stroke-width: 1.1; stroke-linejoin: miter"/>
   </g>
   <g id="patch_20">
    <path d="M 489.528 54.324 
C 489.528 51.751856 488.50513 49.28243 486.68635 47.46365 
C 484.86757 45.64487 482.398144 44.622 479.826 44.622 
C 477.253856 44.622 474.78443 45.64487 472.96565 47.46365 
C 471.14687 49.28243 470.124 51.751856 470.124 54.324 
" clip-path="url(#p86b26488eb)" style="fill: none; stroke: #000000; stroke-width: 1.1; stroke-linejoin: miter"/>
   </g>
   <g id="patch_21">
    <path d="M 508.932 54.324 
C 508.932 51.751856 507.90913 49.28243 506.09035 47.46365 
C 504.27157 45.64487 501.802144 44.622 499.23 44.622 
C 496.657856 44.622 494.18843 45.64487 492.36965 47.46365 
C 490.55087 49.28243 489.528 51.751856 489.528 54.324 
" clip-path="url(#p86b26488eb)" style="fill: none; stroke: #000000; stroke-width: 1.1; stroke-linejoin: miter"/>
   </g>
   <g id="patch_22">
    <path d="M 460.422 44.622 
C 460.422 44.622 460.422 44.622 460.422 44.622 
C 460.422 44.622 460.422 44.622 460.422 44.622 
C 460.422 44.622 460.422 44.622 460.422 44.622 
C 460.422 44.622 460.422 44.622 460.422 44.622 
C 460.422 44.622 460.422 44.622 460.422 44.622 
C 460.422 44.622 460.422 44.622 460.422 44.622 
C 460.422 44.622 460.422 44.622 460.422 44.622 
C 460.422 44.622 460.422 44.622 460.422 44.622 
z
" clip-path="url(#p86b26488eb)" style="stroke: #000000; stroke-linejoin: miter"/>
   </g>
   <g id="patch_23">
    <path d="M 423 195.696 
L 533.88 195.696 
L 533.88 151.344 
L 423 151.344 
L 423 195.696 
z
" clip-path="url(#p86b26488eb)" style="fill: none; stroke: #000000; stroke-width: 1.1; stroke-linejoin: miter"/>
   </g>
   <g id="patch_24">
    <path d="M 217.872 68.184 
Q 217.872 66.798 217.872 66.641837 
" clip-path="url(#p86b26488eb)" style="fill: none; stroke: #000000; stroke-width: 1.1; stroke-linecap: round"/>
    <path d="M 216.272 69.841837 
L 217.872 66.641837 
L 219.472 69.841837 
z
" clip-path="url(#p86b26488eb)" style="stroke: #000000; stroke-width: 1.1; stroke-linecap: round"/>
   </g>
   <g id="patch_25">
    <path d="M 21.06 156.888 
L 115.308 156.888 
L 115.308 109.764 
L 21.06 109.764 
L 21.06 156.888 
z
" clip-path="url(#p86b26488eb)" style="fill: none; stroke: #000000; stroke-width: 1.1; stroke-linejoin: miter"/>
   </g>
   <g id="patch_26">
    <path d="M 61.254 109.764 
Q 61.254 91.746 61.254 74.957837 
" clip-path="url(#p86b26488eb)" style="fill: none; stroke: #000000; stroke-width: 1.1; stroke-linecap: round"/>
    <path d="M 59.654 78.157837 
L 61.254 74.957837 
L 62.854 78.157837 
z
" clip-path="url(#p86b26488eb)" style="stroke: #000000; stroke-width: 1.1; stroke-linecap: round"/>
   </g>
   <g id="patch_27">
    <path d="M 129.168 112.536 
Q 122.238 112.536 116.537837 112.536 
" clip-path="url(#p86b26488eb)" style="fill: none; stroke: #000000; stroke-width: 1.1; stroke-linecap: round"/>
    <path d="M 119.737837 114.136 
L 116.537837 112.536 
L 119.737837 110.936 
z
" clip-path="url(#p86b26488eb)" style="stroke: #000000; stroke-width: 1.1; stroke-linecap: round"/>
   </g>
   <g id="patch_28">
    <path d="M 162.432 278.856 
L 312.12 278.856 
L 312.12 234.504 
L 162.432 234.504 
L 162.432 278.856 
z
" clip-path="url(#p86b26488eb)" style="fill: none; stroke: #000000; stroke-width: 1.1; stroke-linejoin: miter"/>
   </g>
   <g id="patch_29">
    <path d="M 61.254 256.68 
Q 61.254 206.784 61.254 158.117837 
" clip-path="url(#p86b26488eb)" style="fill: none; stroke: #000000; stroke-width: 1.1; stroke-linecap: round"/>
    <path d="M 59.654 161.317837 
L 61.254 158.117837 
L 62.854 161.317837 
z
" clip-path="url(#p86b26488eb)" style="stroke: #000000; stroke-width: 1.1; stroke-linecap: round"/>
   </g>
   <g id="line2d_1">
    <path d="M 195.696 54.324 
L 228.96 54.324 
" clip-path="url(#p86b26488eb)" style="fill: none; stroke: #000000; stroke-width: 1.1"/>
   </g>
   <g id="line2d_2">
    <path d="M 251.136 54.324 
L 273.312 54.324 
" clip-path="url(#p86b26488eb)" style="fill: none; stroke: #000000; stroke-width: 1.1"/>
   </g>
   <g id="line2d_3">
    <path d="M 215.1 112.536 
L 240.048 65.412 
" clip-path="url(#p86b26488eb)" style="fill: none; stroke: #000000; stroke-width: 0.6"/>
   </g>
   <g id="line2d_4">
    <path d="M 240.048 65.412 
" clip-path="url(#p86b26488eb)" style="fill: none; stroke: #000000; stroke-width: 1.5; stroke-linecap: square"/>
    <defs>
     <path id="me6fccd8a39" d="M 0 1 
C 0.265203 1 0.51958 0.894634 0.707107 0.707107 
C 0.894634 0.51958 1 0.265203 1 0 
C 1 -0.265203 0.894634 -0.51958 0.707107 -0.707107 
C 0.51958 -0.894634 0.265203 -1 0 -1 
C -0.265203 -1 -0.51958 -0.894634 -0.707107 -0.707107 
C -0.894634 -0.51958 -1 -0.265203 -1 0 
C -1 0.265203 -0.894634 0.51958 -0.707107 0.707107 
C -0.51958 0.894634 -0.265203 1 0 1 
z
" style="stroke: #000000"/>
    </defs>
    <g clip-path="url(#p86b26488eb)">
     <use xlink:href="#me6fccd8a39" x="240.048" y="65.412" style="stroke: #000000"/>
    </g>
   </g>
   <g id="line2d_5">
    <path d="M 289.944 54.324 
L 289.944 195.696 
" clip-path="url(#p86b26488eb)" style="fill: none; stroke: #000000; stroke-width: 1.1"/>
   </g>
   <g id="line2d_6">
    <path d="M 395.28 54.324 
L 395.28 195.696 
" clip-path="url(#p86b26488eb)" style="fill: none; stroke: #000000; stroke-width: 1.1"/>
   </g>
   <g id="line2d_7">
    <path d="M 273.312 54.324 
L 411.912 54.324 
" clip-path="url(#p86b26488eb)" style="fill: none; stroke: #000000; stroke-width: 1.1"/>
   </g>
   <g id="line2d_8">
    <path d="M 289.944 79.272 
L 309.348 79.272 
" clip-path="url(#p86b26488eb)" style="fill: none; stroke: #000000; stroke-width: 1.1"/>
   </g>
   <g id="line2d_9">
    <path d="M 309.348 79.272 
L 327.366 67.6296 
" clip-path="url(#p86b26488eb)" style="fill: none; stroke: #000000; stroke-width: 1.1"/>
   </g>
   <g id="line2d_10">
    <path d="M 330.138 79.272 
L 349.542 79.272 
" clip-path="url(#p86b26488eb)" style="fill: none; stroke: #000000; stroke-width: 1.1"/>
   </g>
   <g id="line2d_11">
    <path d="M 349.542 90.36 
L 349.542 68.184 
" clip-path="url(#p86b26488eb)" style="fill: none; stroke: #000000; stroke-width: 1.1"/>
   </g>
   <g id="line2d_12">
    <path d="M 359.244 90.36 
L 359.244 68.184 
" clip-path="url(#p86b26488eb)" style="fill: none; stroke: #000000; stroke-width: 1.1"/>
   </g>
   <g id="line2d_13">
    <path d="M 359.244 79.272 
L 395.28 79.272 
" clip-path="url(#p86b26488eb)" style="fill: none; stroke: #000000; stroke-width: 1.1"/>
   </g>
   <g id="line2d_14">
    <path d="M 289.944 118.08 
L 309.348 118.08 
" clip-path="url(#p86b26488eb)" style="fill: none; stroke: #000000; stroke-width: 1.1"/>
   </g>
   <g id="line2d_15">
    <path d="M 309.348 118.08 
L 327.366 106.4376 
" clip-path="url(#p86b26488eb)" style="fill: none; stroke: #000000; stroke-width: 1.1"/>
   </g>
   <g id="line2d_16">
    <path d="M 330.138 118.08 
L 349.542 118.08 
" clip-path="url(#p86b26488eb)" style="fill: none; stroke: #000000; stroke-width: 1.1"/>
   </g>
   <g id="line2d_17">
    <path d="M 349.542 129.168 
L 349.542 106.992 
" clip-path="url(#p86b26488eb)" style="fill: none; stroke: #000000; stroke-width: 1.1"/>
   </g>
   <g id="line2d_18">
    <path d="M 359.244 129.168 
L 359.244 106.992 
" clip-path="url(#p86b26488eb)" style="fill: none; stroke: #000000; stroke-width: 1.1"/>
   </g>
   <g id="line2d_19">
    <path d="M 359.244 118.08 
L 395.28 118.08 
" clip-path="url(#p86b26488eb)" style="fill: none; stroke: #000000; stroke-width: 1.1"/>
   </g>
   <g id="line2d_20">
    <path d="M 289.944 156.888 
L 309.348 156.888 
" clip-path="url(#p86b26488eb)" style="fill: none; stroke: #000000; stroke-width: 1.1"/>
   </g>
   <g id="line2d_21">
    <path d="M 309.348 156.888 
L 327.366 145.2456 
" clip-path="url(#p86b26488eb)" style="fill: none; stroke: #000000; stroke-width: 1.1"/>
   </g>
   <g id="line2d_22">
    <path d="M 330.138 156.888 
L 349.542 156.888 
" clip-path="url(#p86b26488eb)" style="fill: none; stroke: #000000; stroke-width: 1.1"/>
   </g>
   <g id="line2d_23">
    <path d="M 349.542 167.976 
L 349.542 145.8 
" clip-path="url(#p86b26488eb)" style="fill: none; stroke: #000000; stroke-width: 1.1"/>
   </g>
   <g id="line2d_24">
    <path d="M 359.244 167.976 
L 359.244 145.8 
" clip-path="url(#p86b26488eb)" style="fill: none; stroke: #000000; stroke-width: 1.1"/>
   </g>
   <g id="line2d_25">
    <path d="M 359.244 156.888 
L 395.28 156.888 
" clip-path="url(#p86b26488eb)" style="fill: none; stroke: #000000; stroke-width: 1.1"/>
   </g>
   <g id="line2d_26">
    <path d="M 289.944 195.696 
L 309.348 195.696 
" clip-path="url(#p86b26488eb)" style="fill: none; stroke: #000000; stroke-width: 1.1"/>
   </g>
   <g id="line2d_27">
    <path d="M 309.348 195.696 
L 327.366 184.0536 
" clip-path="url(#p86b26488eb)" style="fill: none; stroke: #000000; stroke-width: 1.1"/>
   </g>
   <g id="line2d_28">
    <path d="M 330.138 195.696 
L 349.542 195.696 
" clip-path="url(#p86b26488eb)" style="fill: none; stroke: #000000; stroke-width: 1.1"/>
   </g>
   <g id="line2d_29">
    <path d="M 349.542 206.784 
L 349.542 184.608 
" clip-path="url(#p86b26488eb)" style="fill: none; stroke: #000000; stroke-width: 1.1"/>
   </g>
   <g id="line2d_30">
    <path d="M 359.244 206.784 
L 359.244 184.608 
" clip-path="url(#p86b26488eb)" style="fill: none; stroke: #000000; stroke-width: 1.1"/>
   </g>
   <g id="line2d_31">
    <path d="M 359.244 195.696 
L 395.28 195.696 
" clip-path="url(#p86b26488eb)" style="fill: none; stroke: #000000; stroke-width: 1.1"/>
   </g>
   <g id="line2d_32">
    <path d="M 284.4 19.674 
L 319.8816 73.1736 
" clip-path="url(#p86b26488eb)" style="fill: none; stroke: #000000; stroke-width: 0.6"/>
   </g>
   <g id="line2d_33">
    <path d="M 319.8816 73.1736 
" clip-path="url(#p86b26488eb)" style="fill: none; stroke: #000000; stroke-width: 1.5; stroke-linecap: square"/>
    <g clip-path="url(#p86b26488eb)">
     <use xlink:href="#me6fccd8a39" x="319.8816" y="73.1736" style="stroke: #000000"/>
    </g>
   </g>
   <g id="line2d_34">
    <path d="M 370.332 19.674 
L 354.5316 75.114 
" clip-path="url(#p86b26488eb)" style="fill: none; stroke: #000000; stroke-width: 0.6"/>
   </g>
   <g id="line2d_35">
    <path d="M 354.5316 75.114 
" clip-path="url(#p86b26488eb)" style="fill: none; stroke: #000000; stroke-width: 1.5; stroke-linecap: square"/>
    <g clip-path="url(#p86b26488eb)">
     <use xlink:href="#me6fccd8a39" x="354.5316" y="75.114" style="stroke: #000000"/>
    </g>
   </g>
   <g id="line2d_36">
    <path d="M 411.912 54.324 
L 431.316 54.324 
" clip-path="url(#p86b26488eb)" style="fill: none; stroke: #000000; stroke-width: 1.1"/>
   </g>
   <g id="line2d_37">
    <path d="M 518.634 54.324 
L 536.652 54.324 
" clip-path="url(#p86b26488eb)" style="fill: none; stroke: #000000; stroke-width: 1.1"/>
   </g>
   <g id="line2d_38">
    <path d="M 536.652 54.324 
L 536.652 151.344 
" clip-path="url(#p86b26488eb)" style="fill: none; stroke: #000000; stroke-width: 1.1"/>
   </g>
   <g id="line2d_39">
    <path d="M 467.352 19.674 
L 460.422 44.622 
" clip-path="url(#p86b26488eb)" style="fill: none; stroke: #000000; stroke-width: 0.6"/>
   </g>
   <g id="line2d_40">
    <path d="M 460.422 44.622 
" clip-path="url(#p86b26488eb)" style="fill: none; stroke: #000000; stroke-width: 1.5; stroke-linecap: square"/>
    <g clip-path="url(#p86b26488eb)">
     <use xlink:href="#me6fccd8a39" x="460.422" y="44.622" style="stroke: #000000"/>
    </g>
   </g>
   <g id="line2d_41">
    <path d="M 423 173.52 
L 217.872 173.52 
" clip-path="url(#p86b26488eb)" style="fill: none; stroke: #000000; stroke-width: 1.1"/>
   </g>
   <g id="line2d_42">
    <path d="M 217.872 173.52 
L 217.872 68.184 
" clip-path="url(#p86b26488eb)" style="fill: none; stroke: #000000; stroke-width: 1.1"/>
   </g>
   <g id="line2d_43">
    <path d="M 215.1 112.536 
L 115.308 112.536 
" clip-path="url(#p86b26488eb)" style="fill: none; stroke: #000000; stroke-width: 1.1"/>
   </g>
   <g id="line2d_44">
    <path d="M 312.12 256.68 
L 478.44 256.68 
" clip-path="url(#p86b26488eb)" style="fill: none; stroke: #000000; stroke-width: 1.1"/>
   </g>
   <g id="line2d_45">
    <path d="M 478.44 256.68 
L 478.44 195.696 
" clip-path="url(#p86b26488eb)" style="fill: none; stroke: #000000; stroke-width: 1.1"/>
   </g>
   <g id="line2d_46">
    <path d="M 162.432 256.68 
L 61.254 256.68 
" clip-path="url(#p86b26488eb)" style="fill: none; stroke: #000000; stroke-width: 1.1"/>
   </g>
   <g id="text_1">
    <!-- 【도 8】 -->
    <g transform="translate(7.2 15.6) scale(0.105 -0.105)">
     <defs>
      <path id="NanumGothic-80" d="M 160 -845 
L 160 4685 
L 2234 4685 
Q 1894 4461 1619 4163 
Q 1344 3866 1145 3510 
Q 947 3155 841 2748 
Q 736 2342 736 1914 
Q 736 1478 841 1075 
Q 947 672 1145 317 
Q 1344 -38 1619 -332 
Q 1894 -627 2234 -845 
L 160 -845 
z
" transform="scale(0.015625)"/>
      <path id="NanumGothic-628" d="M 5030 1984 
Q 5030 1894 4947 1894 
L 3213 1894 
L 3213 499 
L 5728 499 
Q 5760 499 5792 476 
Q 5824 454 5824 416 
L 5824 198 
Q 5824 166 5792 140 
Q 5760 115 5728 115 
L 288 115 
Q 250 115 221 140 
Q 192 166 192 198 
L 192 416 
Q 192 454 221 476 
Q 250 499 288 499 
L 2771 499 
L 2771 1894 
L 1491 1894 
Q 1210 1894 1107 1987 
Q 1005 2080 1005 2349 
L 1005 4134 
Q 1005 4403 1107 4496 
Q 1210 4589 1491 4589 
L 4902 4589 
Q 4986 4589 4986 4506 
L 4986 4294 
Q 4986 4205 4902 4205 
L 1600 4205 
Q 1510 4205 1478 4166 
Q 1446 4128 1446 4032 
L 1446 2445 
Q 1446 2355 1478 2316 
Q 1510 2278 1600 2278 
L 4947 2278 
Q 5030 2278 5030 2195 
L 5030 1984 
z
" transform="scale(0.015625)"/>
      <path id="NanumGothic-1" transform="scale(0.015625)"/>
      <path id="NanumGothic-19" d="M 2944 3360 
Q 2944 3725 2624 3936 
Q 2342 4134 1965 4134 
Q 1555 4134 1274 3930 
Q 966 3725 966 3360 
Q 966 3027 1286 2758 
Q 1376 2675 1526 2579 
Q 1677 2483 1882 2387 
Q 1933 2362 1965 2365 
Q 1997 2368 2061 2400 
Q 2470 2624 2707 2870 
Q 2944 3117 2944 3360 
z
M 3104 960 
Q 3104 1312 2784 1574 
Q 2682 1658 2496 1760 
Q 2310 1862 2042 1984 
Q 1958 2029 1856 1984 
Q 1606 1888 1414 1782 
Q 1222 1677 1107 1587 
Q 979 1459 899 1289 
Q 819 1120 819 928 
Q 819 538 1184 288 
Q 1517 38 1965 38 
Q 2426 38 2739 256 
Q 3104 506 3104 960 
z
M 3552 928 
Q 3552 614 3421 364 
Q 3290 115 3046 -51 
Q 2835 -192 2560 -269 
Q 2285 -346 1965 -346 
Q 1651 -346 1379 -262 
Q 1107 -179 883 -32 
Q 640 141 505 387 
Q 371 634 371 928 
Q 371 1427 704 1741 
Q 960 1984 1491 2182 
Q 518 2662 518 3411 
Q 518 3680 652 3888 
Q 787 4096 1030 4262 
Q 1235 4390 1468 4457 
Q 1702 4525 1965 4525 
Q 2272 4525 2515 4457 
Q 2758 4390 2957 4256 
Q 3398 3949 3398 3411 
Q 3398 2746 2400 2182 
Q 2662 2086 2870 1971 
Q 3078 1856 3206 1741 
Q 3552 1434 3552 928 
z
" transform="scale(0.015625)"/>
      <path id="NanumGothic-81" d="M 2259 -845 
L 186 -845 
Q 525 -627 800 -332 
Q 1075 -38 1273 317 
Q 1472 672 1577 1075 
Q 1683 1478 1683 1914 
Q 1683 2342 1577 2748 
Q 1472 3155 1273 3510 
Q 1075 3866 800 4163 
Q 525 4461 186 4685 
L 2259 4685 
L 2259 -845 
z
" transform="scale(0.015625)"/>
     </defs>
     <use xlink:href="#NanumGothic-80"/>
     <use xlink:href="#NanumGothic-628" transform="translate(37.40625 0)"/>
     <use xlink:href="#NanumGothic-1" transform="translate(131.40625 0)"/>
     <use xlink:href="#NanumGothic-19" transform="translate(159.40625 0)"/>
     <use xlink:href="#NanumGothic-81" transform="translate(220 0)"/>
    </g>
   </g>
   <g id="text_2">
    <!-- 파형 발생부 -->
    <g transform="translate(40.089 57.035367) scale(0.085 -0.085)">
     <defs>
      <path id="NanumGothic-c75" d="M 3955 1357 
Q 4058 1376 4064 1312 
L 4102 1088 
Q 4115 1011 4019 998 
Q 3846 966 3622 937 
Q 3398 909 3158 883 
Q 2918 858 2665 835 
Q 2413 813 2182 800 
Q 2003 787 1766 780 
Q 1530 774 1277 771 
Q 1024 768 781 768 
Q 538 768 352 774 
Q 314 774 285 800 
Q 256 826 256 858 
L 256 1075 
Q 256 1114 285 1133 
Q 314 1152 352 1152 
Q 493 1146 672 1142 
Q 851 1139 1050 1146 
L 1050 4147 
L 397 4147 
Q 365 4147 336 4172 
Q 307 4198 307 4237 
L 307 4435 
Q 307 4474 336 4499 
Q 365 4525 397 4525 
L 3648 4525 
Q 3744 4525 3744 4442 
L 3744 4230 
Q 3744 4147 3648 4147 
L 3181 4147 
L 3181 1248 
Q 3386 1274 3581 1299 
Q 3776 1325 3955 1357 
z
M 2170 1178 
Q 2317 1184 2457 1190 
Q 2598 1197 2746 1210 
L 2746 4147 
L 1485 4147 
L 1485 1152 
Q 1670 1158 1846 1161 
Q 2022 1165 2170 1178 
z
M 4928 -806 
Q 4928 -896 4838 -896 
L 4576 -896 
Q 4486 -896 4486 -806 
L 4486 4915 
Q 4486 5005 4576 5005 
L 4838 5005 
Q 4928 5005 4928 4915 
L 4928 2586 
L 5811 2586 
Q 5850 2586 5878 2563 
Q 5907 2541 5907 2502 
L 5907 2285 
Q 5907 2253 5878 2227 
Q 5850 2202 5811 2202 
L 4928 2202 
L 4928 -806 
z
" transform="scale(0.015625)"/>
      <path id="NanumGothic-d0b" d="M 5197 64 
Q 5197 -160 5049 -339 
Q 4902 -518 4649 -646 
Q 4397 -774 4061 -844 
Q 3725 -915 3341 -915 
Q 2925 -915 2585 -844 
Q 2246 -774 2003 -646 
Q 1760 -518 1625 -339 
Q 1491 -160 1491 64 
Q 1491 282 1625 458 
Q 1760 634 2003 762 
Q 2246 890 2585 960 
Q 2925 1030 3341 1030 
Q 3725 1030 4061 963 
Q 4397 896 4649 768 
Q 4902 640 5049 461 
Q 5197 282 5197 64 
z
M 3571 2413 
Q 3571 2182 3468 1993 
Q 3366 1805 3184 1664 
Q 3002 1523 2755 1446 
Q 2509 1370 2221 1370 
Q 1926 1370 1680 1446 
Q 1434 1523 1254 1664 
Q 1075 1805 972 1997 
Q 870 2189 870 2413 
Q 870 2643 972 2835 
Q 1075 3027 1254 3161 
Q 1434 3296 1680 3373 
Q 1926 3450 2221 3450 
Q 2509 3450 2755 3373 
Q 3002 3296 3184 3158 
Q 3366 3021 3468 2829 
Q 3571 2637 3571 2413 
z
M 4742 45 
Q 4742 192 4627 307 
Q 4512 422 4317 502 
Q 4122 582 3866 624 
Q 3610 666 3334 666 
Q 3027 666 2771 624 
Q 2515 582 2332 502 
Q 2150 422 2048 307 
Q 1946 192 1946 45 
Q 1946 -96 2048 -208 
Q 2150 -320 2332 -397 
Q 2515 -474 2771 -512 
Q 3027 -550 3334 -550 
Q 3610 -550 3866 -512 
Q 4122 -474 4317 -397 
Q 4512 -320 4627 -208 
Q 4742 -96 4742 45 
z
M 4710 3347 
L 4710 4915 
Q 4710 5005 4800 5005 
L 5062 5005 
Q 5152 5005 5152 4915 
L 5152 1210 
Q 5152 1120 5062 1120 
L 4800 1120 
Q 4710 1120 4710 1210 
L 4710 1926 
L 3904 1926 
Q 3821 1926 3821 2003 
L 3821 2227 
Q 3821 2304 3904 2304 
L 4710 2304 
L 4710 2970 
L 3904 2970 
Q 3821 2970 3821 3046 
L 3821 3270 
Q 3821 3347 3904 3347 
L 4710 3347 
z
M 3149 2413 
Q 3149 2566 3078 2691 
Q 3008 2816 2883 2902 
Q 2758 2989 2588 3037 
Q 2419 3085 2221 3085 
Q 2022 3085 1849 3037 
Q 1677 2989 1552 2902 
Q 1427 2816 1356 2691 
Q 1286 2566 1286 2413 
Q 1286 2259 1356 2134 
Q 1427 2010 1552 1920 
Q 1677 1830 1849 1782 
Q 2022 1734 2221 1734 
Q 2419 1734 2588 1782 
Q 2758 1830 2883 1920 
Q 3008 2010 3078 2134 
Q 3149 2259 3149 2413 
z
M 3955 3821 
Q 3955 3738 3859 3738 
L 550 3738 
Q 518 3738 489 3763 
Q 461 3789 461 3827 
L 461 4032 
Q 461 4070 489 4096 
Q 518 4122 550 4122 
L 3859 4122 
Q 3955 4122 3955 4038 
L 3955 3821 
z
M 3149 4608 
Q 3149 4518 3053 4518 
L 1363 4518 
Q 1331 4518 1302 4540 
Q 1274 4563 1274 4602 
L 1274 4819 
Q 1274 4858 1299 4883 
Q 1325 4909 1357 4909 
L 3053 4909 
Q 3149 4909 3149 4819 
L 3149 4608 
z
" transform="scale(0.015625)"/>
      <path id="NanumGothic-7ca" d="M 1158 2144 
Q 1005 2144 912 2163 
Q 819 2182 768 2236 
Q 717 2291 697 2377 
Q 678 2464 678 2598 
L 678 4838 
Q 678 4870 704 4892 
Q 730 4915 762 4915 
L 1037 4915 
Q 1069 4915 1091 4889 
Q 1114 4864 1114 4838 
L 1114 3840 
L 2982 3840 
L 2982 4832 
Q 2982 4864 3004 4889 
Q 3027 4915 3059 4915 
L 3334 4915 
Q 3366 4915 3392 4892 
Q 3418 4870 3418 4838 
L 3418 2554 
Q 3418 2310 3315 2227 
Q 3213 2144 2931 2144 
L 1158 2144 
z
M 5062 -838 
Q 5062 -870 5033 -892 
Q 5005 -915 4979 -915 
L 1760 -915 
Q 1459 -915 1366 -803 
Q 1274 -691 1274 -422 
L 1274 58 
Q 1274 326 1386 419 
Q 1498 512 1786 512 
L 4346 512 
Q 4435 512 4460 537 
Q 4486 563 4486 659 
L 4486 1024 
Q 4486 1120 4464 1145 
Q 4442 1171 4352 1171 
L 1350 1171 
Q 1318 1171 1289 1190 
Q 1261 1210 1261 1242 
L 1261 1472 
Q 1261 1504 1289 1523 
Q 1318 1542 1350 1542 
L 4422 1542 
Q 4576 1542 4672 1520 
Q 4768 1498 4825 1446 
Q 4883 1395 4905 1302 
Q 4928 1210 4928 1075 
L 4928 595 
Q 4928 326 4816 233 
Q 4704 141 4416 141 
L 1850 141 
Q 1760 141 1737 115 
Q 1715 90 1715 -6 
L 1715 -397 
Q 1715 -486 1740 -515 
Q 1766 -544 1856 -544 
L 4973 -544 
Q 5005 -544 5033 -563 
Q 5062 -582 5062 -614 
L 5062 -838 
z
M 1114 3462 
L 1114 2675 
Q 1114 2579 1146 2550 
Q 1178 2522 1267 2522 
L 2829 2522 
Q 2918 2522 2950 2550 
Q 2982 2579 2982 2675 
L 2982 3462 
L 1114 3462 
z
M 4928 1978 
Q 4928 1888 4838 1888 
L 4576 1888 
Q 4486 1888 4486 1978 
L 4486 4915 
Q 4486 5005 4576 5005 
L 4838 5005 
Q 4928 5005 4928 4915 
L 4928 3642 
L 5811 3642 
Q 5850 3642 5878 3619 
Q 5907 3597 5907 3558 
L 5907 3341 
Q 5907 3309 5878 3283 
Q 5850 3258 5811 3258 
L 4928 3258 
L 4928 1978 
z
" transform="scale(0.015625)"/>
      <path id="NanumGothic-8a4" d="M 1434 250 
Q 1434 525 1581 739 
Q 1728 954 1993 1104 
Q 2259 1254 2620 1331 
Q 2982 1408 3418 1408 
Q 3814 1408 4172 1331 
Q 4531 1254 4806 1107 
Q 5082 960 5242 745 
Q 5402 531 5402 250 
Q 5402 -32 5242 -253 
Q 5082 -474 4806 -621 
Q 4531 -768 4172 -845 
Q 3814 -922 3418 -922 
Q 2982 -922 2620 -845 
Q 2259 -768 1993 -621 
Q 1728 -474 1581 -253 
Q 1434 -32 1434 250 
z
M 1907 230 
Q 1907 38 2019 -106 
Q 2131 -250 2332 -346 
Q 2534 -442 2809 -490 
Q 3085 -538 3411 -538 
Q 3699 -538 3974 -490 
Q 4250 -442 4461 -346 
Q 4672 -250 4803 -106 
Q 4934 38 4934 230 
Q 4934 429 4803 576 
Q 4672 723 4461 822 
Q 4250 922 3974 973 
Q 3699 1024 3411 1024 
Q 3085 1024 2809 973 
Q 2534 922 2332 822 
Q 2131 723 2019 576 
Q 1907 429 1907 230 
z
M 4128 1773 
Q 4128 1683 4038 1683 
L 3795 1683 
Q 3706 1683 3706 1773 
L 3706 4806 
Q 3706 4896 3795 4896 
L 4038 4896 
Q 4128 4896 4128 4806 
L 4128 3392 
L 4941 3392 
L 4941 4915 
Q 4941 5005 5030 5005 
L 5274 5005 
Q 5363 5005 5363 4915 
L 5363 1574 
Q 5363 1485 5274 1485 
L 5030 1485 
Q 4941 1485 4941 1574 
L 4941 3008 
L 4128 3008 
L 4128 1773 
z
M 2131 4704 
Q 2125 4218 1997 3776 
Q 2074 3552 2202 3334 
Q 2330 3117 2493 2925 
Q 2656 2733 2848 2576 
Q 3040 2419 3238 2317 
Q 3309 2278 3258 2202 
L 3104 1984 
Q 3085 1958 3062 1955 
Q 3040 1952 2982 1984 
Q 2630 2202 2316 2541 
Q 2003 2880 1798 3245 
Q 1613 2854 1334 2505 
Q 1056 2157 666 1837 
Q 614 1798 579 1798 
Q 544 1798 531 1818 
L 352 2022 
Q 294 2093 384 2157 
Q 710 2413 947 2694 
Q 1184 2976 1344 3293 
Q 1504 3610 1587 3962 
Q 1670 4314 1683 4710 
Q 1677 4755 1702 4784 
Q 1728 4813 1760 4813 
L 2061 4794 
Q 2131 4794 2131 4704 
z
" transform="scale(0.015625)"/>
      <path id="NanumGothic-817" d="M 1498 2419 
Q 1344 2419 1251 2438 
Q 1158 2458 1107 2512 
Q 1056 2566 1037 2652 
Q 1018 2739 1018 2874 
L 1018 4909 
Q 1018 4941 1043 4963 
Q 1069 4986 1101 4986 
L 1376 4986 
Q 1408 4986 1430 4960 
Q 1453 4934 1453 4909 
L 1453 4058 
L 4531 4058 
L 4531 4902 
Q 4531 4934 4553 4960 
Q 4576 4986 4608 4986 
L 4883 4986 
Q 4915 4986 4940 4963 
Q 4966 4941 4966 4909 
L 4966 2829 
Q 4966 2586 4864 2502 
Q 4762 2419 4480 2419 
L 1498 2419 
z
M 2854 -858 
Q 2822 -858 2796 -829 
Q 2771 -800 2771 -762 
L 2771 1242 
L 288 1242 
Q 250 1242 221 1267 
Q 192 1293 192 1325 
L 192 1542 
Q 192 1581 221 1603 
Q 250 1626 288 1626 
L 5728 1626 
Q 5760 1626 5792 1603 
Q 5824 1581 5824 1542 
L 5824 1325 
Q 5824 1293 5792 1267 
Q 5760 1242 5728 1242 
L 3213 1242 
L 3213 -762 
Q 3213 -800 3190 -829 
Q 3168 -858 3130 -858 
L 2854 -858 
z
M 1453 3680 
L 1453 2950 
Q 1453 2854 1485 2825 
Q 1517 2797 1606 2797 
L 4378 2797 
Q 4467 2797 4499 2825 
Q 4531 2854 4531 2950 
L 4531 3680 
L 1453 3680 
z
" transform="scale(0.015625)"/>
     </defs>
     <use xlink:href="#NanumGothic-c75"/>
     <use xlink:href="#NanumGothic-d0b" transform="translate(94 0)"/>
     <use xlink:href="#NanumGothic-1" transform="translate(188 0)"/>
     <use xlink:href="#NanumGothic-7ca" transform="translate(216 0)"/>
     <use xlink:href="#NanumGothic-8a4" transform="translate(310 0)"/>
     <use xlink:href="#NanumGothic-817" transform="translate(404 0)"/>
    </g>
   </g>
   <g id="text_3">
    <!-- 151 -->
    <g transform="translate(21.06 28.862) scale(0.095 -0.095)">
     <defs>
      <path id="NanumGothic-12" d="M 2362 -211 
Q 2362 -301 2272 -301 
L 2010 -301 
Q 1920 -301 1920 -211 
L 1920 3949 
Q 1722 3782 1549 3635 
Q 1376 3488 1184 3322 
Q 1114 3264 1056 3334 
L 928 3488 
Q 909 3520 909 3555 
Q 909 3590 941 3616 
L 1933 4448 
Q 1958 4474 2010 4474 
L 2182 4474 
Q 2317 4474 2339 4451 
Q 2362 4429 2362 4294 
L 2362 -211 
z
" transform="scale(0.015625)"/>
      <path id="NanumGothic-16" d="M 736 -205 
Q 646 -173 646 -90 
L 646 179 
Q 646 288 736 243 
Q 966 134 1187 89 
Q 1408 45 1670 45 
Q 2234 45 2586 320 
Q 2970 614 2970 1165 
Q 2970 2246 1734 2246 
Q 1491 2246 1296 2220 
Q 1101 2195 864 2131 
Q 794 2112 749 2147 
Q 704 2182 704 2253 
L 742 4294 
Q 742 4429 764 4451 
Q 787 4474 922 4474 
L 3110 4474 
Q 3200 4474 3200 4384 
L 3200 4173 
Q 3200 4083 3110 4083 
L 1178 4083 
Q 1171 3680 1161 3296 
Q 1152 2912 1146 2509 
Q 1459 2630 1907 2630 
Q 2579 2630 2995 2266 
Q 3411 1888 3411 1254 
Q 3411 480 2931 58 
Q 2470 -346 1670 -346 
Q 1382 -346 1171 -314 
Q 960 -282 736 -205 
z
" transform="scale(0.015625)"/>
     </defs>
     <use xlink:href="#NanumGothic-12"/>
     <use xlink:href="#NanumGothic-16" transform="translate(60.59375 0)"/>
     <use xlink:href="#NanumGothic-12" transform="translate(121.1875 0)"/>
    </g>
   </g>
   <g id="text_4">
    <!-- 152 -->
    <g transform="translate(129.168 19.16) scale(0.095 -0.095)">
     <defs>
      <path id="NanumGothic-13" d="M 576 -301 
Q 506 -301 470 -297 
Q 435 -294 419 -278 
Q 403 -262 400 -227 
Q 397 -192 397 -122 
L 403 19 
Q 403 102 454 154 
L 1510 1318 
Q 2688 2592 2688 3251 
Q 2688 3635 2432 3891 
Q 2182 4141 1811 4141 
Q 1293 4141 730 3853 
Q 640 3808 627 3891 
L 589 4102 
Q 570 4211 653 4237 
Q 979 4384 1241 4454 
Q 1504 4525 1779 4525 
Q 2394 4525 2758 4218 
Q 3168 3885 3168 3270 
Q 3168 3034 3053 2752 
Q 2938 2470 2733 2163 
Q 2605 1984 2371 1696 
Q 2138 1408 1837 1082 
Q 1613 838 1392 588 
Q 1171 339 947 96 
L 3187 96 
Q 3277 96 3277 6 
L 3277 -211 
Q 3277 -301 3187 -301 
L 576 -301 
z
" transform="scale(0.015625)"/>
     </defs>
     <use xlink:href="#NanumGothic-12"/>
     <use xlink:href="#NanumGothic-16" transform="translate(60.59375 0)"/>
     <use xlink:href="#NanumGothic-13" transform="translate(121.1875 0)"/>
    </g>
   </g>
   <g id="text_5">
    <!-- 161 -->
    <g transform="translate(189.098981 115.386) scale(0.095 -0.095)">
     <defs>
      <path id="NanumGothic-17" d="M 3078 1203 
Q 3078 1722 2810 2022 
Q 2541 2330 2042 2330 
Q 1786 2330 1581 2250 
Q 1376 2170 1232 2029 
Q 1088 1888 1008 1689 
Q 928 1491 928 1254 
Q 928 768 1197 435 
Q 1491 45 1984 45 
Q 2490 45 2797 384 
Q 3078 704 3078 1203 
z
M 3245 4013 
Q 3098 4064 2909 4096 
Q 2720 4128 2534 4128 
Q 1664 4128 1248 3501 
Q 896 2976 883 2061 
Q 1024 2317 1293 2496 
Q 1626 2733 2042 2733 
Q 2624 2733 3021 2426 
Q 3526 2035 3526 1235 
Q 3526 557 3110 109 
Q 2688 -346 1971 -346 
Q 435 -346 435 1920 
Q 435 3104 909 3770 
Q 1466 4525 2586 4525 
Q 2752 4525 2934 4499 
Q 3117 4474 3270 4429 
Q 3366 4410 3354 4314 
L 3341 4077 
Q 3341 4032 3309 4016 
Q 3277 4000 3245 4013 
z
" transform="scale(0.015625)"/>
     </defs>
     <use xlink:href="#NanumGothic-12"/>
     <use xlink:href="#NanumGothic-17" transform="translate(60.59375 0)"/>
     <use xlink:href="#NanumGothic-12" transform="translate(121.1875 0)"/>
    </g>
   </g>
   <g id="text_6">
    <!-- 153 -->
    <g transform="translate(273.312 30.248) scale(0.095 -0.095)">
     <defs>
      <path id="NanumGothic-14" d="M 493 -192 
Q 397 -166 410 -45 
L 435 205 
Q 448 282 538 243 
Q 806 134 1046 89 
Q 1286 45 1606 38 
Q 2112 32 2458 294 
Q 2861 563 2861 1082 
Q 2861 1990 1498 1990 
L 1165 1990 
Q 1082 1990 1082 2061 
L 1082 2298 
Q 1082 2381 1165 2381 
L 1197 2381 
Q 1882 2381 2266 2528 
Q 2848 2752 2848 3334 
Q 2848 3520 2749 3677 
Q 2650 3834 2483 3942 
Q 2330 4032 2138 4083 
Q 1946 4134 1734 4134 
Q 1517 4134 1254 4076 
Q 992 4019 749 3923 
Q 666 3891 653 3974 
L 627 4211 
Q 608 4301 710 4339 
Q 998 4435 1248 4480 
Q 1498 4525 1779 4525 
Q 2426 4525 2835 4250 
Q 3302 3936 3302 3334 
Q 3302 2906 2995 2592 
Q 2739 2317 2330 2189 
Q 2534 2163 2710 2080 
Q 2886 1997 3014 1850 
Q 3162 1690 3238 1488 
Q 3315 1286 3315 1043 
Q 3315 723 3184 464 
Q 3053 205 2810 19 
Q 2573 -154 2265 -253 
Q 1958 -352 1581 -346 
Q 1242 -339 995 -307 
Q 749 -275 493 -192 
z
" transform="scale(0.015625)"/>
     </defs>
     <use xlink:href="#NanumGothic-12"/>
     <use xlink:href="#NanumGothic-16" transform="translate(60.59375 0)"/>
     <use xlink:href="#NanumGothic-14" transform="translate(121.1875 0)"/>
    </g>
   </g>
   <g id="text_7">
    <!-- 155 -->
    <g transform="translate(258.398981 22.524) scale(0.095 -0.095)">
     <use xlink:href="#NanumGothic-12"/>
     <use xlink:href="#NanumGothic-16" transform="translate(60.59375 0)"/>
     <use xlink:href="#NanumGothic-16" transform="translate(121.1875 0)"/>
    </g>
   </g>
   <g id="text_8">
    <!-- 154 -->
    <g transform="translate(379.0638 22.524) scale(0.095 -0.095)">
     <defs>
      <path id="NanumGothic-15" d="M 2509 1216 
L 2509 4070 
Q 2035 3354 1568 2643 
Q 1101 1933 621 1216 
L 2509 1216 
z
M 2944 -211 
Q 2944 -301 2854 -301 
L 2598 -301 
Q 2509 -301 2509 -211 
L 2509 826 
L 397 826 
Q 262 826 240 848 
Q 218 870 218 1005 
L 218 1203 
Q 218 1261 224 1280 
Q 230 1299 262 1350 
L 2304 4397 
Q 2342 4454 2358 4464 
Q 2374 4474 2445 4474 
L 2765 4474 
Q 2899 4474 2921 4451 
Q 2944 4429 2944 4294 
L 2944 1216 
L 3578 1216 
Q 3667 1216 3667 1126 
L 3667 915 
Q 3667 826 3578 826 
L 2944 826 
L 2944 -211 
z
" transform="scale(0.015625)"/>
     </defs>
     <use xlink:href="#NanumGothic-12"/>
     <use xlink:href="#NanumGothic-16" transform="translate(60.59375 0)"/>
     <use xlink:href="#NanumGothic-15" transform="translate(121.1875 0)"/>
    </g>
   </g>
   <g id="text_9">
    <!-- 147 -->
    <g transform="translate(476.0838 22.524) scale(0.095 -0.095)">
     <defs>
      <path id="NanumGothic-18" d="M 1549 -211 
Q 1504 -301 1421 -301 
L 1101 -301 
Q 1062 -301 1046 -275 
Q 1030 -250 1050 -211 
L 2912 4083 
L 538 4083 
Q 448 4083 448 4173 
L 448 4384 
Q 448 4474 538 4474 
L 3194 4474 
Q 3328 4474 3350 4451 
Q 3373 4429 3373 4294 
L 3373 4134 
Q 3373 4083 3354 4045 
L 1549 -211 
z
" transform="scale(0.015625)"/>
     </defs>
     <use xlink:href="#NanumGothic-12"/>
     <use xlink:href="#NanumGothic-15" transform="translate(60.59375 0)"/>
     <use xlink:href="#NanumGothic-18" transform="translate(121.1875 0)"/>
    </g>
   </g>
   <g id="text_10">
    <!-- 노출 셀 140 -->
    <g transform="translate(456.349297 170.511133) scale(0.085 -0.085)">
     <defs>
      <path id="NanumGothic-5a2" d="M 5101 2086 
Q 5101 2048 5069 2029 
Q 5037 2010 5005 2010 
L 3213 2010 
L 3213 499 
L 5728 499 
Q 5760 499 5792 476 
Q 5824 454 5824 416 
L 5824 198 
Q 5824 166 5792 140 
Q 5760 115 5728 115 
L 288 115 
Q 250 115 221 140 
Q 192 166 192 198 
L 192 416 
Q 192 454 221 476 
Q 250 499 288 499 
L 2771 499 
L 2771 2010 
L 1568 2010 
Q 1267 2010 1174 2134 
Q 1082 2259 1082 2522 
L 1082 4538 
Q 1082 4627 1171 4627 
L 1434 4627 
Q 1523 4627 1523 4538 
L 1523 2528 
Q 1523 2438 1552 2416 
Q 1581 2394 1670 2394 
L 5005 2394 
Q 5037 2394 5069 2371 
Q 5101 2349 5101 2317 
L 5101 2086 
z
" transform="scale(0.015625)"/>
      <path id="NanumGothic-b79" d="M 5056 -781 
Q 5056 -813 5027 -835 
Q 4998 -858 4973 -858 
L 1568 -858 
Q 1267 -858 1174 -758 
Q 1082 -659 1082 -390 
L 1082 6 
Q 1082 275 1197 352 
Q 1312 429 1594 429 
L 4352 429 
Q 4442 429 4464 454 
Q 4486 480 4486 576 
L 4486 787 
Q 4486 883 4464 908 
Q 4442 934 4352 934 
L 1158 934 
Q 1126 934 1097 953 
Q 1069 973 1069 1005 
L 1069 1229 
Q 1069 1261 1097 1280 
Q 1126 1299 1158 1299 
L 2771 1299 
L 2771 1907 
L 288 1907 
Q 250 1907 221 1932 
Q 192 1958 192 1990 
L 192 2208 
Q 192 2246 221 2268 
Q 250 2291 288 2291 
L 5728 2291 
Q 5760 2291 5792 2268 
Q 5824 2246 5824 2208 
L 5824 1990 
Q 5824 1958 5792 1932 
Q 5760 1907 5728 1907 
L 3219 1907 
L 3219 1299 
L 4416 1299 
Q 4570 1299 4666 1276 
Q 4762 1254 4819 1203 
Q 4877 1152 4899 1059 
Q 4922 966 4922 832 
L 4922 518 
Q 4922 250 4810 157 
Q 4698 64 4410 64 
L 1651 64 
Q 1562 64 1539 38 
Q 1517 13 1517 -83 
L 1517 -339 
Q 1517 -429 1542 -457 
Q 1568 -486 1658 -486 
L 4966 -486 
Q 4998 -486 5027 -505 
Q 5056 -525 5056 -557 
L 5056 -781 
z
M 4358 3629 
Q 4211 3526 4006 3433 
Q 3802 3341 3558 3251 
Q 3738 3219 3946 3190 
Q 4154 3162 4365 3136 
Q 4576 3110 4781 3091 
Q 4986 3072 5171 3066 
Q 5210 3059 5232 3043 
Q 5254 3027 5242 2970 
L 5210 2771 
Q 5197 2726 5177 2707 
Q 5158 2688 5094 2694 
Q 4883 2707 4598 2742 
Q 4314 2778 4006 2826 
Q 3699 2874 3404 2931 
Q 3110 2989 2886 3040 
Q 2406 2906 1907 2800 
Q 1408 2694 973 2630 
Q 909 2618 886 2634 
Q 864 2650 851 2688 
L 806 2886 
Q 787 2982 870 2995 
Q 1254 3046 1680 3132 
Q 2106 3219 2506 3318 
Q 2906 3418 3248 3526 
Q 3590 3635 3802 3731 
Q 3936 3795 3923 3836 
Q 3910 3878 3821 3878 
L 1274 3878 
Q 1190 3878 1190 3962 
L 1190 4166 
Q 1190 4243 1274 4243 
L 3955 4243 
Q 4218 4243 4394 4201 
Q 4570 4160 4637 4083 
Q 4704 4006 4640 3891 
Q 4576 3776 4358 3629 
z
M 3814 5024 
Q 3910 5024 3910 4934 
L 3910 4730 
Q 3910 4634 3814 4634 
L 2131 4634 
Q 2035 4634 2035 4730 
L 2035 4934 
Q 2035 5024 2131 5024 
L 3814 5024 
z
" transform="scale(0.015625)"/>
      <path id="NanumGothic-8c4" d="M 5498 -838 
Q 5498 -870 5469 -892 
Q 5440 -915 5414 -915 
L 1990 -915 
Q 1690 -915 1597 -803 
Q 1504 -691 1504 -422 
L 1504 26 
Q 1504 294 1616 387 
Q 1728 480 2016 480 
L 4781 480 
Q 4870 480 4896 505 
Q 4922 531 4922 627 
L 4922 960 
Q 4922 1056 4899 1081 
Q 4877 1107 4787 1107 
L 1581 1107 
Q 1549 1107 1520 1126 
Q 1491 1146 1491 1178 
L 1491 1408 
Q 1491 1440 1520 1459 
Q 1549 1478 1581 1478 
L 4858 1478 
Q 5011 1478 5107 1456 
Q 5203 1434 5260 1382 
Q 5318 1331 5340 1238 
Q 5363 1146 5363 1011 
L 5363 563 
Q 5363 294 5251 201 
Q 5139 109 4851 109 
L 2080 109 
Q 1990 109 1968 83 
Q 1946 58 1946 -38 
L 1946 -397 
Q 1946 -486 1971 -515 
Q 1997 -544 2086 -544 
L 5408 -544 
Q 5440 -544 5469 -563 
Q 5498 -582 5498 -614 
L 5498 -838 
z
M 2131 4806 
Q 2125 4595 2093 4380 
Q 2061 4166 1990 3955 
Q 2157 3507 2480 3139 
Q 2803 2771 3213 2566 
Q 3251 2547 3251 2515 
Q 3251 2483 3232 2451 
L 3085 2246 
Q 3066 2214 3040 2211 
Q 3014 2208 2963 2240 
Q 2547 2490 2256 2794 
Q 1965 3098 1779 3450 
Q 1587 3066 1302 2717 
Q 1018 2368 659 2061 
Q 608 2022 573 2022 
Q 538 2022 525 2042 
L 346 2246 
Q 288 2317 378 2381 
Q 672 2611 912 2896 
Q 1152 3181 1325 3497 
Q 1498 3814 1590 4147 
Q 1683 4480 1683 4813 
Q 1677 4858 1702 4886 
Q 1728 4915 1760 4915 
L 2061 4896 
Q 2131 4896 2131 4806 
z
M 3808 3808 
L 3808 4806 
Q 3808 4896 3898 4896 
L 4141 4896 
Q 4230 4896 4230 4806 
L 4230 2010 
Q 4230 1920 4141 1920 
L 3898 1920 
Q 3808 1920 3808 2010 
L 3808 3424 
L 2893 3424 
Q 2810 3424 2810 3501 
L 2810 3731 
Q 2810 3808 2893 3808 
L 3808 3808 
z
M 5363 1926 
Q 5363 1837 5274 1837 
L 5030 1837 
Q 4941 1837 4941 1926 
L 4941 4915 
Q 4941 5005 5030 5005 
L 5274 5005 
Q 5363 5005 5363 4915 
L 5363 1926 
z
" transform="scale(0.015625)"/>
      <path id="NanumGothic-11" d="M 3066 2093 
Q 3066 4102 1965 4102 
Q 864 4102 864 2093 
Q 864 77 1965 77 
Q 3066 77 3066 2093 
z
M 3526 2093 
Q 3526 -326 1965 -326 
Q 390 -326 390 2093 
Q 390 3098 698 3725 
Q 1088 4512 1965 4512 
Q 2829 4512 3226 3725 
Q 3373 3411 3449 3008 
Q 3526 2605 3526 2093 
z
" transform="scale(0.015625)"/>
     </defs>
     <use xlink:href="#NanumGothic-5a2"/>
     <use xlink:href="#NanumGothic-b79" transform="translate(94 0)"/>
     <use xlink:href="#NanumGothic-1" transform="translate(188 0)"/>
     <use xlink:href="#NanumGothic-8c4" transform="translate(216 0)"/>
     <use xlink:href="#NanumGothic-1" transform="translate(310 0)"/>
     <use xlink:href="#NanumGothic-12" transform="translate(338 0)"/>
     <use xlink:href="#NanumGothic-15" transform="translate(398.59375 0)"/>
     <use xlink:href="#NanumGothic-11" transform="translate(459.1875 0)"/>
    </g>
    <!-- 공극 146 -->
    <g transform="translate(461.534297 181.853984) scale(0.085 -0.085)">
     <defs>
      <path id="NanumGothic-495" d="M 4992 243 
Q 4992 -70 4813 -294 
Q 4634 -518 4349 -659 
Q 4064 -800 3705 -867 
Q 3347 -934 2995 -934 
Q 2650 -934 2294 -867 
Q 1939 -800 1651 -659 
Q 1363 -518 1184 -294 
Q 1005 -70 1005 243 
Q 1005 550 1184 774 
Q 1363 998 1651 1142 
Q 1939 1286 2294 1356 
Q 2650 1427 2995 1427 
Q 3354 1427 3709 1360 
Q 4064 1293 4349 1149 
Q 4634 1005 4813 781 
Q 4992 557 4992 243 
z
M 4525 237 
Q 4525 448 4374 595 
Q 4224 742 3993 838 
Q 3763 934 3494 979 
Q 3226 1024 2995 1024 
Q 2752 1024 2483 979 
Q 2214 934 1990 838 
Q 1766 742 1619 595 
Q 1472 448 1472 237 
Q 1472 32 1619 -115 
Q 1766 -262 1990 -355 
Q 2214 -448 2483 -489 
Q 2752 -531 2995 -531 
Q 3232 -531 3501 -489 
Q 3770 -448 3997 -355 
Q 4224 -262 4374 -115 
Q 4525 32 4525 237 
z
M 2918 3475 
Q 2950 3475 2976 3446 
Q 3002 3418 3002 3379 
L 3002 2304 
L 5728 2304 
Q 5760 2304 5792 2281 
Q 5824 2259 5824 2221 
L 5824 2003 
Q 5824 1971 5792 1945 
Q 5760 1920 5728 1920 
L 288 1920 
Q 250 1920 221 1945 
Q 192 1971 192 2003 
L 192 2221 
Q 192 2259 221 2281 
Q 250 2304 288 2304 
L 2573 2304 
L 2573 3379 
Q 2573 3418 2595 3446 
Q 2618 3475 2656 3475 
L 2918 3475 
z
M 1056 4794 
Q 1056 4832 1088 4851 
Q 1120 4870 1152 4870 
L 4461 4870 
Q 4614 4870 4707 4838 
Q 4800 4806 4851 4745 
Q 4902 4685 4924 4589 
Q 4947 4493 4947 4358 
Q 4947 4166 4934 3948 
Q 4922 3731 4896 3520 
Q 4870 3309 4835 3113 
Q 4800 2918 4768 2771 
Q 4755 2733 4732 2701 
Q 4710 2669 4672 2675 
L 4416 2694 
Q 4307 2701 4339 2810 
Q 4378 2950 4410 3152 
Q 4442 3354 4467 3568 
Q 4493 3782 4502 3990 
Q 4512 4198 4512 4352 
Q 4512 4442 4483 4464 
Q 4454 4486 4365 4486 
L 1152 4486 
Q 1120 4486 1088 4508 
Q 1056 4531 1056 4563 
L 1056 4794 
z
" transform="scale(0.015625)"/>
      <path id="NanumGothic-4d3" d="M 4506 4294 
Q 4506 4390 4474 4425 
Q 4442 4461 4352 4461 
L 1139 4461 
Q 1056 4461 1056 4544 
L 1056 4762 
Q 1056 4845 1139 4845 
L 4448 4845 
Q 4749 4845 4845 4739 
Q 4941 4634 4941 4358 
Q 4941 4166 4925 3936 
Q 4909 3706 4880 3472 
Q 4851 3238 4816 3011 
Q 4781 2784 4736 2598 
L 5728 2598 
Q 5760 2598 5792 2576 
Q 5824 2554 5824 2515 
L 5824 2298 
Q 5824 2266 5792 2240 
Q 5760 2214 5728 2214 
L 288 2214 
Q 250 2214 221 2240 
Q 192 2266 192 2298 
L 192 2515 
Q 192 2554 221 2576 
Q 250 2598 288 2598 
L 4320 2598 
Q 4358 2784 4393 3005 
Q 4429 3226 4454 3450 
Q 4480 3674 4493 3891 
Q 4506 4109 4506 4294 
z
M 973 1165 
Q 973 1203 1005 1222 
Q 1037 1242 1069 1242 
L 4448 1242 
Q 4749 1242 4841 1130 
Q 4934 1018 4934 755 
L 4934 -870 
Q 4934 -960 4845 -960 
L 4582 -960 
Q 4493 -960 4493 -870 
L 4493 723 
Q 4493 813 4464 835 
Q 4435 858 4346 858 
L 1069 858 
Q 1037 858 1005 880 
Q 973 902 973 934 
L 973 1165 
z
" transform="scale(0.015625)"/>
     </defs>
     <use xlink:href="#NanumGothic-495"/>
     <use xlink:href="#NanumGothic-4d3" transform="translate(94 0)"/>
     <use xlink:href="#NanumGothic-1" transform="translate(188 0)"/>
     <use xlink:href="#NanumGothic-12" transform="translate(216 0)"/>
     <use xlink:href="#NanumGothic-15" transform="translate(276.59375 0)"/>
     <use xlink:href="#NanumGothic-17" transform="translate(337.1875 0)"/>
    </g>
   </g>
   <g id="text_11">
    <!-- 140 -->
    <g transform="translate(516.610781 146.672) scale(0.095 -0.095)">
     <use xlink:href="#NanumGothic-12"/>
     <use xlink:href="#NanumGothic-15" transform="translate(60.59375 0)"/>
     <use xlink:href="#NanumGothic-11" transform="translate(121.1875 0)"/>
    </g>
   </g>
   <g id="text_12">
    <!-- 제어부 -->
    <g transform="translate(56.199 130.317133) scale(0.085 -0.085)">
     <defs>
      <path id="NanumGothic-a81" d="M 2816 3974 
Q 2720 3603 2579 3248 
Q 2438 2893 2253 2547 
Q 2349 2355 2480 2153 
Q 2611 1952 2764 1760 
Q 2918 1568 3081 1398 
Q 3245 1229 3405 1101 
Q 3437 1069 3433 1037 
Q 3430 1005 3405 979 
L 3251 806 
Q 3226 781 3200 774 
Q 3174 768 3123 813 
Q 2982 934 2828 1094 
Q 2675 1254 2528 1433 
Q 2381 1613 2246 1795 
Q 2112 1978 2010 2150 
Q 1722 1709 1350 1312 
Q 979 915 538 582 
Q 506 563 470 553 
Q 435 544 416 570 
L 250 768 
Q 224 800 233 832 
Q 243 864 275 883 
Q 1075 1510 1580 2252 
Q 2086 2995 2330 3942 
Q 2355 4032 2332 4070 
Q 2310 4109 2221 4109 
L 595 4109 
Q 518 4109 518 4192 
L 518 4416 
Q 518 4493 608 4493 
L 2394 4493 
Q 2726 4493 2809 4384 
Q 2893 4275 2816 3974 
z
M 3808 2867 
L 3808 4806 
Q 3808 4896 3898 4896 
L 4141 4896 
Q 4230 4896 4230 4806 
L 4230 -563 
Q 4230 -653 4141 -653 
L 3898 -653 
Q 3808 -653 3808 -563 
L 3808 2483 
L 2886 2483 
Q 2848 2483 2819 2508 
Q 2790 2534 2790 2566 
L 2790 2784 
Q 2790 2822 2819 2844 
Q 2848 2867 2886 2867 
L 3808 2867 
z
M 5363 -806 
Q 5363 -896 5274 -896 
L 5030 -896 
Q 4941 -896 4941 -806 
L 4941 4915 
Q 4941 5005 5030 5005 
L 5274 5005 
Q 5363 5005 5363 4915 
L 5363 -806 
z
" transform="scale(0.015625)"/>
      <path id="NanumGothic-9af" d="M 5152 -806 
Q 5152 -896 5062 -896 
L 4800 -896 
Q 4710 -896 4710 -806 
L 4710 2381 
L 3565 2381 
Q 3546 2042 3446 1709 
Q 3347 1376 3161 1110 
Q 2976 845 2697 678 
Q 2419 512 2035 512 
Q 1613 512 1321 697 
Q 1030 883 854 1180 
Q 678 1478 601 1843 
Q 525 2208 525 2566 
Q 525 2944 601 3312 
Q 678 3680 854 3974 
Q 1030 4269 1321 4448 
Q 1613 4627 2035 4627 
Q 2419 4627 2697 4470 
Q 2976 4314 3161 4051 
Q 3347 3789 3446 3453 
Q 3546 3117 3565 2765 
L 4710 2765 
L 4710 4915 
Q 4710 5005 4800 5005 
L 5062 5005 
Q 5152 5005 5152 4915 
L 5152 -806 
z
M 3117 2573 
Q 3117 2861 3056 3155 
Q 2995 3450 2867 3686 
Q 2739 3923 2534 4070 
Q 2330 4218 2035 4218 
Q 1728 4218 1526 4070 
Q 1325 3923 1203 3686 
Q 1082 3450 1030 3155 
Q 979 2861 979 2573 
Q 979 2298 1027 2003 
Q 1075 1709 1196 1469 
Q 1318 1229 1523 1075 
Q 1728 922 2035 922 
Q 2330 922 2534 1075 
Q 2739 1229 2867 1469 
Q 2995 1709 3056 2003 
Q 3117 2298 3117 2573 
z
" transform="scale(0.015625)"/>
     </defs>
     <use xlink:href="#NanumGothic-a81"/>
     <use xlink:href="#NanumGothic-9af" transform="translate(94 0)"/>
     <use xlink:href="#NanumGothic-817" transform="translate(188 0)"/>
    </g>
    <!-- 171 / 172 -->
    <g transform="translate(48.758844 141.617484) scale(0.085 -0.085)">
     <defs>
      <path id="NanumGothic-10" d="M 2304 4595 
Q 2381 4595 2390 4582 
Q 2400 4570 2374 4493 
L 589 -666 
Q 563 -730 550 -739 
Q 538 -749 467 -749 
L 198 -749 
Q 122 -749 112 -736 
Q 102 -723 128 -653 
L 1914 4499 
Q 1939 4570 1955 4582 
Q 1971 4595 2054 4595 
L 2304 4595 
z
" transform="scale(0.015625)"/>
     </defs>
     <use xlink:href="#NanumGothic-12"/>
     <use xlink:href="#NanumGothic-18" transform="translate(60.59375 0)"/>
     <use xlink:href="#NanumGothic-12" transform="translate(121.1875 0)"/>
     <use xlink:href="#NanumGothic-1" transform="translate(181.78125 0)"/>
     <use xlink:href="#NanumGothic-10" transform="translate(209.78125 0)"/>
     <use xlink:href="#NanumGothic-1" transform="translate(247.28125 0)"/>
     <use xlink:href="#NanumGothic-12" transform="translate(275.28125 0)"/>
     <use xlink:href="#NanumGothic-18" transform="translate(335.875 0)"/>
     <use xlink:href="#NanumGothic-13" transform="translate(396.46875 0)"/>
    </g>
   </g>
   <g id="text_13">
    <!-- 170 -->
    <g transform="translate(21.06 103.706) scale(0.095 -0.095)">
     <use xlink:href="#NanumGothic-12"/>
     <use xlink:href="#NanumGothic-18" transform="translate(60.59375 0)"/>
     <use xlink:href="#NanumGothic-11" transform="translate(121.1875 0)"/>
    </g>
   </g>
   <g id="text_14">
    <!-- 제3 계층 수중 자기 센서 -->
    <g transform="translate(193.985766 253.64125) scale(0.085 -0.085)">
     <defs>
      <path id="NanumGothic-485" d="M 2938 4000 
Q 2925 3846 2902 3702 
Q 2880 3558 2848 3411 
L 3808 3411 
L 3808 4806 
Q 3808 4896 3898 4896 
L 4141 4896 
Q 4230 4896 4230 4806 
L 4230 -563 
Q 4230 -653 4141 -653 
L 3898 -653 
Q 3808 -653 3808 -563 
L 3808 1568 
L 2586 1568 
Q 2502 1568 2502 1645 
L 2502 1869 
Q 2502 1946 2586 1946 
L 3808 1946 
L 3808 3034 
L 2739 3034 
Q 2272 1594 730 570 
Q 646 512 602 576 
L 461 774 
Q 429 813 441 851 
Q 454 890 486 909 
Q 915 1178 1264 1507 
Q 1613 1837 1869 2211 
Q 2125 2586 2278 2998 
Q 2432 3411 2470 3846 
Q 2483 4006 2444 4054 
Q 2406 4102 2278 4102 
L 723 4102 
Q 646 4102 646 4179 
L 646 4410 
Q 646 4442 672 4464 
Q 698 4486 730 4486 
L 2432 4486 
Q 2720 4486 2838 4364 
Q 2957 4243 2938 4000 
z
M 5363 -806 
Q 5363 -896 5274 -896 
L 5030 -896 
Q 4941 -896 4941 -806 
L 4941 4915 
Q 4941 5005 5030 5005 
L 5274 5005 
Q 5363 5005 5363 4915 
L 5363 -806 
z
" transform="scale(0.015625)"/>
      <path id="NanumGothic-b95" d="M 4992 77 
Q 4992 -134 4896 -291 
Q 4800 -448 4640 -560 
Q 4480 -672 4272 -745 
Q 4064 -819 3843 -864 
Q 3622 -909 3401 -925 
Q 3181 -941 2995 -941 
Q 2816 -941 2595 -925 
Q 2374 -909 2153 -864 
Q 1933 -819 1725 -745 
Q 1517 -672 1357 -560 
Q 1197 -448 1101 -291 
Q 1005 -134 1005 77 
Q 1005 282 1101 438 
Q 1197 595 1357 707 
Q 1517 819 1725 892 
Q 1933 966 2153 1011 
Q 2374 1056 2592 1072 
Q 2810 1088 2995 1088 
Q 3181 1088 3401 1072 
Q 3622 1056 3846 1011 
Q 4070 966 4275 892 
Q 4480 819 4640 707 
Q 4800 595 4896 438 
Q 4992 282 4992 77 
z
M 4403 3610 
Q 4224 3482 4006 3357 
Q 3789 3232 3546 3117 
Q 3904 3008 4323 2915 
Q 4742 2822 5146 2765 
Q 5197 2758 5206 2736 
Q 5216 2714 5203 2669 
L 5146 2451 
Q 5133 2381 5043 2400 
Q 4838 2432 4582 2486 
Q 4326 2541 4054 2601 
Q 3782 2662 3507 2736 
Q 3232 2810 2982 2880 
Q 2534 2714 2032 2573 
Q 1530 2432 998 2336 
Q 902 2317 877 2381 
L 800 2598 
Q 787 2630 806 2659 
Q 826 2688 864 2701 
Q 1318 2790 1715 2892 
Q 2112 2995 2470 3116 
Q 2829 3238 3165 3379 
Q 3501 3520 3834 3693 
Q 3942 3750 3932 3792 
Q 3923 3834 3821 3834 
L 1274 3834 
Q 1190 3834 1190 3917 
L 1190 4141 
Q 1190 4218 1274 4218 
L 4038 4218 
Q 4538 4218 4646 4042 
Q 4755 3866 4403 3610 
z
M 4525 70 
Q 4525 275 4349 396 
Q 4173 518 3926 582 
Q 3680 646 3421 665 
Q 3162 685 2995 685 
Q 2822 685 2560 665 
Q 2298 646 2058 582 
Q 1818 518 1645 396 
Q 1472 275 1472 70 
Q 1472 -134 1645 -252 
Q 1818 -371 2058 -435 
Q 2298 -499 2560 -518 
Q 2822 -538 2995 -538 
Q 3168 -538 3427 -518 
Q 3686 -499 3929 -435 
Q 4173 -371 4349 -252 
Q 4525 -134 4525 70 
z
M 5728 1952 
Q 5760 1952 5792 1929 
Q 5824 1907 5824 1869 
L 5824 1651 
Q 5824 1619 5792 1593 
Q 5760 1568 5728 1568 
L 288 1568 
Q 250 1568 221 1593 
Q 192 1619 192 1651 
L 192 1869 
Q 192 1907 221 1929 
Q 250 1952 288 1952 
L 5728 1952 
z
M 3814 5005 
Q 3910 5005 3910 4915 
L 3910 4710 
Q 3910 4614 3814 4614 
L 2131 4614 
Q 2035 4614 2035 4710 
L 2035 4915 
Q 2035 5005 2131 5005 
L 3814 5005 
z
" transform="scale(0.015625)"/>
      <path id="NanumGothic-8fb" d="M 2854 -858 
Q 2822 -858 2796 -829 
Q 2771 -800 2771 -762 
L 2771 1325 
L 288 1325 
Q 250 1325 221 1350 
Q 192 1376 192 1408 
L 192 1626 
Q 192 1664 221 1686 
Q 250 1709 288 1709 
L 5728 1709 
Q 5760 1709 5792 1686 
Q 5824 1664 5824 1626 
L 5824 1408 
Q 5824 1376 5792 1350 
Q 5760 1325 5728 1325 
L 3213 1325 
L 3213 -762 
Q 3213 -800 3190 -829 
Q 3168 -858 3130 -858 
L 2854 -858 
z
M 3232 4864 
Q 3219 4781 3200 4704 
Q 3181 4627 3162 4557 
Q 3181 4486 3206 4425 
Q 3232 4365 3264 4307 
Q 3373 4096 3584 3881 
Q 3795 3667 4070 3478 
Q 4346 3290 4666 3142 
Q 4986 2995 5325 2912 
Q 5363 2899 5376 2860 
Q 5389 2822 5376 2790 
L 5274 2573 
Q 5254 2541 5232 2528 
Q 5210 2515 5146 2528 
Q 4806 2618 4473 2774 
Q 4141 2931 3853 3136 
Q 3565 3341 3331 3577 
Q 3098 3814 2950 4058 
Q 2675 3558 2163 3158 
Q 1651 2758 877 2451 
Q 774 2413 749 2477 
L 627 2701 
Q 614 2733 624 2771 
Q 634 2810 672 2822 
Q 1088 2963 1465 3196 
Q 1843 3430 2131 3712 
Q 2419 3994 2595 4301 
Q 2771 4608 2790 4909 
Q 2797 4986 2874 4986 
L 3162 4954 
Q 3194 4947 3219 4928 
Q 3245 4909 3232 4864 
z
" transform="scale(0.015625)"/>
      <path id="NanumGothic-aba" d="M 5728 2310 
Q 5760 2310 5792 2288 
Q 5824 2266 5824 2227 
L 5824 2010 
Q 5824 1978 5792 1952 
Q 5760 1926 5728 1926 
L 3219 1926 
L 3219 1146 
Q 3507 1133 3817 1078 
Q 4128 1024 4390 905 
Q 4653 787 4822 595 
Q 4992 403 4992 109 
Q 4992 -218 4787 -422 
Q 4582 -627 4281 -742 
Q 3981 -858 3632 -899 
Q 3283 -941 2995 -941 
Q 2803 -941 2582 -921 
Q 2362 -902 2141 -860 
Q 1920 -819 1715 -742 
Q 1510 -666 1353 -547 
Q 1197 -429 1101 -269 
Q 1005 -109 1005 109 
Q 1005 397 1174 592 
Q 1344 787 1606 905 
Q 1869 1024 2182 1078 
Q 2496 1133 2778 1146 
L 2778 1926 
L 288 1926 
Q 250 1926 221 1952 
Q 192 1978 192 2010 
L 192 2227 
Q 192 2266 221 2288 
Q 250 2310 288 2310 
L 5728 2310 
z
M 4493 4218 
Q 4160 3904 3590 3610 
Q 3770 3558 3990 3500 
Q 4211 3443 4441 3385 
Q 4672 3328 4902 3277 
Q 5133 3226 5331 3187 
Q 5414 3168 5389 3098 
L 5299 2886 
Q 5267 2816 5184 2835 
Q 4966 2874 4697 2938 
Q 4429 3002 4150 3075 
Q 3872 3149 3600 3225 
Q 3328 3302 3098 3379 
Q 2592 3168 2013 3005 
Q 1434 2842 832 2739 
Q 774 2726 752 2748 
Q 730 2771 717 2810 
L 659 3002 
Q 634 3098 710 3104 
Q 1152 3174 1638 3308 
Q 2125 3443 2576 3609 
Q 3027 3776 3404 3958 
Q 3782 4141 4006 4307 
Q 4109 4384 4086 4429 
Q 4064 4474 3974 4474 
L 1210 4474 
Q 1126 4474 1126 4557 
L 1126 4781 
Q 1126 4858 1210 4858 
L 4134 4858 
Q 4627 4858 4716 4688 
Q 4806 4518 4493 4218 
z
M 4525 102 
Q 4525 314 4352 438 
Q 4179 563 3936 633 
Q 3693 704 3433 726 
Q 3174 749 2995 749 
Q 2810 749 2550 726 
Q 2291 704 2051 633 
Q 1811 563 1641 438 
Q 1472 314 1472 102 
Q 1472 -102 1641 -230 
Q 1811 -358 2051 -425 
Q 2291 -493 2550 -515 
Q 2810 -538 2995 -538 
Q 3174 -538 3436 -515 
Q 3699 -493 3939 -425 
Q 4179 -358 4352 -230 
Q 4525 -102 4525 102 
z
" transform="scale(0.015625)"/>
      <path id="NanumGothic-a57" d="M 3674 858 
Q 3654 826 3625 819 
Q 3597 813 3546 851 
Q 3392 966 3219 1116 
Q 3046 1267 2880 1436 
Q 2714 1606 2554 1788 
Q 2394 1971 2259 2150 
Q 1939 1747 1529 1379 
Q 1120 1011 595 646 
Q 563 627 531 617 
Q 499 608 480 634 
L 326 832 
Q 301 864 307 899 
Q 314 934 339 954 
Q 1363 1677 1936 2419 
Q 2509 3162 2733 3968 
Q 2758 4058 2736 4099 
Q 2714 4141 2624 4141 
L 685 4141 
Q 608 4141 608 4224 
L 608 4448 
Q 608 4525 698 4525 
L 2797 4525 
Q 3130 4525 3219 4409 
Q 3309 4294 3219 4000 
Q 2970 3181 2515 2496 
Q 2662 2291 2828 2092 
Q 2995 1894 3161 1718 
Q 3328 1542 3494 1398 
Q 3661 1254 3808 1158 
Q 3840 1133 3840 1101 
Q 3840 1069 3821 1043 
L 3674 858 
z
M 4928 -806 
Q 4928 -896 4838 -896 
L 4576 -896 
Q 4486 -896 4486 -806 
L 4486 4915 
Q 4486 5005 4576 5005 
L 4838 5005 
Q 4928 5005 4928 4915 
L 4928 2586 
L 5811 2586 
Q 5850 2586 5878 2563 
Q 5907 2541 5907 2502 
L 5907 2285 
Q 5907 2253 5878 2227 
Q 5850 2202 5811 2202 
L 4928 2202 
L 4928 -806 
z
" transform="scale(0.015625)"/>
      <path id="NanumGothic-4dd" d="M 5152 -806 
Q 5152 -896 5062 -896 
L 4800 -896 
Q 4710 -896 4710 -806 
L 4710 4915 
Q 4710 5005 4800 5005 
L 5062 5005 
Q 5152 5005 5152 4915 
L 5152 -806 
z
M 3437 4064 
Q 3405 3514 3219 2982 
Q 3034 2451 2704 1968 
Q 2374 1485 1910 1072 
Q 1446 659 858 346 
Q 774 301 736 365 
L 595 589 
Q 550 666 621 698 
Q 1165 979 1584 1340 
Q 2003 1702 2300 2124 
Q 2598 2547 2771 3014 
Q 2944 3482 2989 3974 
Q 3002 4070 2963 4105 
Q 2925 4141 2835 4141 
L 800 4141 
Q 723 4141 723 4224 
L 723 4448 
Q 723 4525 800 4525 
L 2957 4525 
Q 3258 4525 3354 4413 
Q 3450 4301 3437 4064 
z
" transform="scale(0.015625)"/>
      <path id="NanumGothic-8c3" d="M 2131 4634 
Q 2125 4122 1997 3648 
Q 2157 3168 2483 2755 
Q 2810 2342 3251 2074 
Q 3328 2029 3270 1958 
L 3117 1754 
Q 3098 1728 3072 1721 
Q 3046 1715 2995 1754 
Q 2624 1997 2313 2349 
Q 2003 2701 1798 3098 
Q 1606 2675 1315 2304 
Q 1024 1933 646 1619 
Q 595 1581 560 1581 
Q 525 1581 512 1600 
L 333 1805 
Q 275 1875 365 1939 
Q 678 2189 928 2499 
Q 1178 2810 1347 3155 
Q 1517 3501 1603 3875 
Q 1690 4250 1683 4640 
Q 1677 4685 1702 4713 
Q 1728 4742 1760 4742 
L 2061 4723 
Q 2131 4723 2131 4634 
z
M 5536 -704 
Q 5536 -742 5504 -761 
Q 5472 -781 5440 -781 
L 2054 -781 
Q 1754 -781 1661 -665 
Q 1568 -550 1568 -288 
L 1568 960 
Q 1568 1050 1658 1050 
L 1920 1050 
Q 2010 1050 2010 960 
L 2010 -262 
Q 2010 -352 2038 -374 
Q 2067 -397 2157 -397 
L 5440 -397 
Q 5472 -397 5504 -419 
Q 5536 -442 5536 -474 
L 5536 -704 
z
M 3808 3437 
L 3808 4806 
Q 3808 4896 3898 4896 
L 4141 4896 
Q 4230 4896 4230 4806 
L 4230 960 
Q 4230 870 4141 870 
L 3898 870 
Q 3808 870 3808 960 
L 3808 3053 
L 2893 3053 
Q 2810 3053 2810 3130 
L 2810 3360 
Q 2810 3437 2893 3437 
L 3808 3437 
z
M 5363 762 
Q 5363 672 5274 672 
L 5030 672 
Q 4941 672 4941 762 
L 4941 4915 
Q 4941 5005 5030 5005 
L 5274 5005 
Q 5363 5005 5363 4915 
L 5363 762 
z
" transform="scale(0.015625)"/>
      <path id="NanumGothic-8b2" d="M 5152 -806 
Q 5152 -896 5062 -896 
L 4800 -896 
Q 4710 -896 4710 -806 
L 4710 2534 
L 3309 2534 
Q 3226 2534 3226 2611 
L 3226 2842 
Q 3226 2918 3309 2918 
L 4710 2918 
L 4710 4915 
Q 4710 5005 4800 5005 
L 5062 5005 
Q 5152 5005 5152 4915 
L 5152 -806 
z
M 2323 4589 
Q 2323 4166 2288 3779 
Q 2253 3392 2176 3034 
Q 2240 2778 2374 2493 
Q 2509 2208 2691 1926 
Q 2874 1645 3101 1379 
Q 3328 1114 3584 902 
Q 3616 877 3619 838 
Q 3622 800 3603 774 
L 3443 576 
Q 3386 506 3309 576 
Q 3130 730 2941 944 
Q 2752 1158 2576 1395 
Q 2400 1632 2246 1881 
Q 2093 2131 1984 2362 
Q 1779 1779 1446 1289 
Q 1114 800 653 378 
Q 589 326 544 371 
L 352 570 
Q 333 589 336 621 
Q 339 653 371 685 
Q 762 1056 1050 1465 
Q 1338 1875 1520 2348 
Q 1702 2822 1788 3379 
Q 1875 3936 1875 4602 
Q 1875 4646 1897 4668 
Q 1920 4691 1952 4691 
L 2253 4678 
Q 2323 4678 2323 4589 
z
" transform="scale(0.015625)"/>
     </defs>
     <use xlink:href="#NanumGothic-a81"/>
     <use xlink:href="#NanumGothic-14" transform="translate(94 0)"/>
     <use xlink:href="#NanumGothic-1" transform="translate(154.59375 0)"/>
     <use xlink:href="#NanumGothic-485" transform="translate(182.59375 0)"/>
     <use xlink:href="#NanumGothic-b95" transform="translate(276.59375 0)"/>
     <use xlink:href="#NanumGothic-1" transform="translate(370.59375 0)"/>
     <use xlink:href="#NanumGothic-8fb" transform="translate(398.59375 0)"/>
     <use xlink:href="#NanumGothic-aba" transform="translate(492.59375 0)"/>
     <use xlink:href="#NanumGothic-1" transform="translate(586.59375 0)"/>
     <use xlink:href="#NanumGothic-a57" transform="translate(614.59375 0)"/>
     <use xlink:href="#NanumGothic-4dd" transform="translate(708.59375 0)"/>
     <use xlink:href="#NanumGothic-1" transform="translate(802.59375 0)"/>
     <use xlink:href="#NanumGothic-8c3" transform="translate(830.59375 0)"/>
     <use xlink:href="#NanumGothic-8b2" transform="translate(924.59375 0)"/>
    </g>
    <!-- 및 동기 복조부 -->
    <g transform="translate(210.926 265.065117) scale(0.085 -0.085)">
     <defs>
      <path id="NanumGothic-7c2" d="M 710 4339 
Q 710 4608 812 4701 
Q 915 4794 1197 4794 
L 2957 4794 
Q 3110 4794 3203 4774 
Q 3296 4755 3350 4704 
Q 3405 4653 3424 4563 
Q 3443 4474 3443 4339 
L 3443 2579 
Q 3443 2310 3340 2217 
Q 3238 2125 2957 2125 
L 1197 2125 
Q 1043 2125 950 2144 
Q 858 2163 803 2217 
Q 749 2272 729 2358 
Q 710 2445 710 2579 
L 710 4339 
z
M 4896 256 
Q 4685 115 4435 -16 
Q 4186 -147 3898 -269 
Q 4083 -314 4310 -358 
Q 4538 -403 4771 -444 
Q 5005 -486 5235 -521 
Q 5466 -557 5658 -582 
Q 5741 -589 5715 -672 
L 5651 -883 
Q 5632 -947 5536 -941 
Q 5306 -915 5021 -867 
Q 4736 -819 4438 -758 
Q 4141 -698 3853 -630 
Q 3565 -563 3322 -493 
Q 2867 -653 2368 -784 
Q 1869 -915 1325 -1005 
Q 1235 -1018 1216 -954 
L 1152 -749 
Q 1126 -653 1203 -640 
Q 2195 -454 3008 -195 
Q 3821 64 4403 371 
Q 4486 422 4476 454 
Q 4467 486 4384 486 
L 1613 486 
Q 1530 486 1530 570 
L 1530 781 
Q 1530 858 1613 858 
L 4563 858 
Q 4813 858 4947 797 
Q 5082 736 5117 646 
Q 5152 557 5091 451 
Q 5030 346 4896 256 
z
M 1306 4410 
Q 1216 4410 1184 4374 
Q 1152 4339 1152 4243 
L 1152 2675 
Q 1152 2579 1184 2544 
Q 1216 2509 1306 2509 
L 2848 2509 
Q 2938 2509 2970 2544 
Q 3002 2579 3002 2675 
L 3002 4243 
Q 3002 4339 2970 4374 
Q 2938 4410 2848 4410 
L 1306 4410 
z
M 5152 1856 
Q 5152 1766 5062 1766 
L 4800 1766 
Q 4710 1766 4710 1856 
L 4710 4915 
Q 4710 5005 4800 5005 
L 5062 5005 
Q 5152 5005 5152 4915 
L 5152 1856 
z
M 4186 1645 
Q 4282 1645 4282 1555 
L 4282 1370 
Q 4282 1274 4186 1274 
L 2566 1274 
Q 2470 1274 2470 1370 
L 2470 1555 
Q 2470 1645 2566 1645 
L 4186 1645 
z
" transform="scale(0.015625)"/>
      <path id="NanumGothic-632" d="M 4992 109 
Q 4992 -218 4787 -422 
Q 4582 -627 4281 -742 
Q 3981 -858 3632 -899 
Q 3283 -941 2995 -941 
Q 2803 -941 2582 -921 
Q 2362 -902 2141 -860 
Q 1920 -819 1715 -742 
Q 1510 -666 1353 -547 
Q 1197 -429 1101 -269 
Q 1005 -109 1005 109 
Q 1005 429 1209 630 
Q 1414 832 1715 947 
Q 2016 1062 2365 1107 
Q 2714 1152 2995 1152 
Q 3283 1152 3632 1110 
Q 3981 1069 4285 953 
Q 4589 838 4790 633 
Q 4992 429 4992 109 
z
M 5728 1990 
Q 5760 1990 5792 1968 
Q 5824 1946 5824 1907 
L 5824 1690 
Q 5824 1658 5792 1632 
Q 5760 1606 5728 1606 
L 288 1606 
Q 250 1606 221 1632 
Q 192 1658 192 1690 
L 192 1907 
Q 192 1946 221 1968 
Q 250 1990 288 1990 
L 2778 1990 
L 2778 2816 
L 1594 2816 
Q 1312 2816 1209 2909 
Q 1107 3002 1107 3270 
L 1107 4422 
Q 1107 4691 1209 4784 
Q 1312 4877 1594 4877 
L 4851 4877 
Q 4934 4877 4934 4794 
L 4934 4582 
Q 4934 4493 4851 4493 
L 1702 4493 
Q 1613 4493 1581 4457 
Q 1549 4422 1549 4326 
L 1549 3366 
Q 1549 3277 1581 3238 
Q 1613 3200 1702 3200 
L 4896 3200 
Q 4979 3200 4979 3117 
L 4979 2906 
Q 4979 2816 4896 2816 
L 3219 2816 
L 3219 1990 
L 5728 1990 
z
M 4525 102 
Q 4525 314 4352 438 
Q 4179 563 3936 633 
Q 3693 704 3433 726 
Q 3174 749 2995 749 
Q 2810 749 2550 726 
Q 2291 704 2051 633 
Q 1811 563 1641 438 
Q 1472 314 1472 102 
Q 1472 -102 1641 -230 
Q 1811 -358 2051 -425 
Q 2291 -493 2550 -515 
Q 2810 -538 2995 -538 
Q 3174 -538 3436 -515 
Q 3699 -493 3939 -425 
Q 4179 -358 4352 -230 
Q 4525 -102 4525 102 
z
" transform="scale(0.015625)"/>
      <path id="NanumGothic-802" d="M 3206 2624 
L 3206 1920 
L 5728 1920 
Q 5760 1920 5792 1897 
Q 5824 1875 5824 1837 
L 5824 1619 
Q 5824 1587 5792 1561 
Q 5760 1536 5728 1536 
L 288 1536 
Q 250 1536 221 1561 
Q 192 1587 192 1619 
L 192 1837 
Q 192 1875 221 1897 
Q 250 1920 288 1920 
L 2765 1920 
L 2765 2624 
L 1600 2624 
Q 1446 2624 1353 2643 
Q 1261 2662 1209 2716 
Q 1158 2771 1139 2857 
Q 1120 2944 1120 3078 
L 1120 4890 
Q 1120 4922 1145 4944 
Q 1171 4966 1203 4966 
L 1478 4966 
Q 1510 4966 1532 4940 
Q 1555 4915 1555 4890 
L 1555 4166 
L 4461 4166 
L 4461 4883 
Q 4461 4915 4483 4940 
Q 4506 4966 4538 4966 
L 4813 4966 
Q 4845 4966 4870 4944 
Q 4896 4922 4896 4890 
L 4896 3034 
Q 4896 2790 4793 2707 
Q 4691 2624 4410 2624 
L 3206 2624 
z
M 1555 3789 
L 1555 3155 
Q 1555 3059 1587 3030 
Q 1619 3002 1709 3002 
L 4307 3002 
Q 4397 3002 4429 3030 
Q 4461 3059 4461 3155 
L 4461 3789 
L 1555 3789 
z
M 947 870 
Q 947 909 979 928 
Q 1011 947 1043 947 
L 4442 947 
Q 4742 947 4835 835 
Q 4928 723 4928 461 
L 4928 -870 
Q 4928 -960 4838 -960 
L 4576 -960 
Q 4486 -960 4486 -870 
L 4486 429 
Q 4486 518 4457 540 
Q 4429 563 4339 563 
L 1043 563 
Q 1011 563 979 585 
Q 947 608 947 640 
L 947 870 
z
" transform="scale(0.015625)"/>
      <path id="NanumGothic-a91" d="M 5261 2016 
Q 5235 1952 5139 1984 
Q 4666 2112 4141 2336 
Q 3616 2560 3142 2835 
Q 2669 2534 2134 2288 
Q 1600 2042 960 1824 
Q 870 1792 838 1869 
L 755 2074 
Q 723 2157 800 2189 
Q 1370 2394 1821 2595 
Q 2272 2797 2653 3017 
Q 3034 3238 3360 3488 
Q 3686 3738 4006 4038 
Q 4077 4109 4070 4147 
Q 4064 4186 3962 4186 
L 1210 4186 
Q 1126 4186 1126 4269 
L 1126 4493 
Q 1126 4570 1210 4570 
L 4134 4570 
Q 4384 4570 4525 4518 
Q 4666 4467 4704 4380 
Q 4742 4294 4688 4172 
Q 4634 4051 4499 3917 
Q 4038 3456 3501 3072 
Q 3910 2848 4380 2653 
Q 4851 2458 5299 2342 
Q 5357 2330 5363 2307 
Q 5370 2285 5350 2246 
L 5261 2016 
z
M 3123 1978 
Q 3155 1978 3180 1949 
Q 3206 1920 3206 1882 
L 3206 499 
L 5728 499 
Q 5760 499 5792 476 
Q 5824 454 5824 416 
L 5824 198 
Q 5824 166 5792 140 
Q 5760 115 5728 115 
L 288 115 
Q 250 115 221 140 
Q 192 166 192 198 
L 192 416 
Q 192 454 221 476 
Q 250 499 288 499 
L 2765 499 
L 2765 1882 
Q 2765 1920 2787 1949 
Q 2810 1978 2848 1978 
L 3123 1978 
z
" transform="scale(0.015625)"/>
     </defs>
     <use xlink:href="#NanumGothic-7c2"/>
     <use xlink:href="#NanumGothic-1" transform="translate(94 0)"/>
     <use xlink:href="#NanumGothic-632" transform="translate(122 0)"/>
     <use xlink:href="#NanumGothic-4dd" transform="translate(216 0)"/>
     <use xlink:href="#NanumGothic-1" transform="translate(310 0)"/>
     <use xlink:href="#NanumGothic-802" transform="translate(338 0)"/>
     <use xlink:href="#NanumGothic-a91" transform="translate(432 0)"/>
     <use xlink:href="#NanumGothic-817" transform="translate(526 0)"/>
    </g>
   </g>
   <g id="text_15">
    <!-- 163 -->
    <g transform="translate(162.432 228.446) scale(0.095 -0.095)">
     <use xlink:href="#NanumGothic-12"/>
     <use xlink:href="#NanumGothic-17" transform="translate(60.59375 0)"/>
     <use xlink:href="#NanumGothic-14" transform="translate(121.1875 0)"/>
    </g>
   </g>
  </g>
 </g>
 <defs>
  <clipPath id="p86b26488eb">
   <rect x="7.2" y="7.2" width="543.312" height="299.376"/>
  </clipPath>
 </defs>
</svg>
